<?xml version="1.0" encoding="UTF-8" standalone="no"?>
<!-- Created with Inkscape (http://www.inkscape.org/) -->

<svg
   width="55.163734mm"
   height="48.317635mm"
   viewBox="0 0 55.163734 48.317635"
   version="1.1"
   id="svg843"
   xmlns="http://www.w3.org/2000/svg"
   xmlns:svg="http://www.w3.org/2000/svg">
  <defs
     id="defs840">
    <clipPath
       clipPathUnits="userSpaceOnUse"
       id="clipPath1172">
      <rect
         style="opacity:0.99;fill:#000080;fill-opacity:0.144124;stroke-width:9.66425"
         id="rect1174"
         width="208.49286"
         height="182.61783"
         x="135.65753"
         y="148.26988" />
    </clipPath>
  </defs>
  <g
     id="layer1"
     transform="translate(-50.996209,-90.062059)">
    <g
       style="fill:none;stroke:none;stroke-linecap:square;stroke-miterlimit:10"
       id="g934"
       transform="matrix(0.26458333,0,0,0.26458333,15.103488,50.83232)"
       clip-path="url(#clipPath1172)">
      <g
         clip-path="url(#g2ed90a1dba7_0_14.0)"
         id="g919">
        <path
           fill="#ffffff"
           d="M 0,0 H 960 V 540 H 0 Z"
           fill-rule="evenodd"
           id="path907" />
        <path
           fill="#000000"
           fill-opacity="0"
           d="m 140.3412,146.70866 h 894.5512 v 358.6772 H 140.3412 Z"
           fill-rule="evenodd"
           id="path909" />
        <path
           fill="#190098"
           d="m 156.3412,219.70866 v -46.65625 h 19.65625 q 7.46875,0 13.17187,2.9375 5.70313,2.92187 8.85938,8.1875 3.17187,5.26562 3.17187,12.20312 0,6.9375 -3.17187,12.20313 -3.15625,5.26562 -8.85938,8.20312 -5.70312,2.92188 -13.17187,2.92188 z m 6.67187,-5.79688 h 12.59375 q 5.79688,0 10.03125,-2.20312 4.23438,-2.20313 6.5625,-6.15625 2.32813,-3.96875 2.32813,-9.17188 0,-5.26562 -2.32813,-9.20312 -2.32812,-3.9375 -6.5625,-6.125 -4.23437,-2.20313 -10.03125,-2.20313 h -12.59375 z"
           fill-rule="nonzero"
           id="path911" />
        <path
           fill="#190098"
           d="m 226.9931,220.38054 q -6.20313,0 -10.96875,-2.4375 -4.76563,-2.4375 -7.5,-6.70313 -2.71875,-4.26562 -2.71875,-9.79687 0,-5.53125 2.71875,-9.79688 2.73437,-4.26562 7.5,-6.65625 4.76562,-2.40625 10.96875,-2.40625 6.20312,0 11,2.40625 4.79687,2.39063 7.5,6.65625 2.70312,4.26563 2.70312,9.79688 0,5.53125 -2.70312,9.79687 -2.70313,4.26563 -7.5,6.70313 -4.79688,2.4375 -11,2.4375 z m 0,-11.73438 q 1.67187,0 3,-0.79687 1.32812,-0.8125 2.125,-2.4375 0.8125,-1.64063 0.8125,-3.96875 0,-2.39063 -0.8125,-3.95313 -0.79688,-1.57812 -2.125,-2.375 -1.32813,-0.79687 -3,-0.79687 -1.65625,0 -3,0.79687 -1.32813,0.79688 -2.125,2.375 -0.79688,1.5625 -0.79688,3.95313 0,2.32812 0.79688,3.96875 0.79687,1.625 2.125,2.4375 1.34375,0.79687 3,0.79687 z"
           fill-rule="nonzero"
           id="path913" />
        <path
           fill="#190098"
           d="m 271.38925,220.11491 q -5.67188,0 -9.96875,-2.32813 -4.29688,-2.34375 -6.67189,-6.40625 -2.35938,-4.0625 -2.35938,-9.32812 0,-5.28125 2.29688,-9.34375 2.31251,-4.0625 6.34376,-6.35938 4.03125,-2.29687 9.09375,-2.29687 5.125,0 9.0625,2.26562 3.9375,2.26563 6.17188,6.35938 2.23437,4.09375 2.23437,9.5625 0,0.40625 -0.0469,0.9375 -0.0312,0.53125 -0.0937,1 h -30.0625 v -4.59375 h 26.73437 l -2.60937,1.59375 q 0.0781,-3.40625 -1.39063,-6.0625 -1.46875,-2.67188 -4.04687,-4.17188 -2.5625,-1.5 -5.95313,-1.5 -3.32812,0 -5.9375,1.5 -2.59375,1.5 -4.0625,4.20313 -1.46875,2.70312 -1.46875,6.17187 v 1.0625 q 0,3.53125 1.625,6.29688 1.64063,2.76562 4.57813,4.29687 2.9375,1.53125 6.73437,1.53125 3.125,0 5.6875,-1.0625 2.57813,-1.0625 4.5,-3.20312 l 3.54688,4.14062 q -2.40625,2.79688 -5.96875,4.26563 -3.5625,1.46875 -7.96875,1.46875 z"
           fill-rule="nonzero"
           id="path915" />
        <path
           fill="#190098"
           d="m 199.60683,266.4524 q 4.26562,0 7.53125,1.67187 3.26562,1.65625 5.09375,5.0625 1.82812,3.39063 1.82812,8.59375 v 20.32813 h -6.39062 V 282.5149 q 0,-5.14063 -2.40625,-7.73438 -2.39063,-2.59375 -6.73438,-2.59375 -3.1875,0 -5.59375,1.32813 -2.40625,1.32812 -3.70312,3.9375 -1.29688,2.59375 -1.29688,6.45312 v 18.20313 H 181.5287 V 282.5149 q 0,-5.14063 -2.35937,-7.73438 -2.35938,-2.59375 -6.76563,-2.59375 -3.125,0 -5.53125,1.32813 -2.40625,1.32812 -3.73437,3.9375 -1.32813,2.59375 -1.32813,6.45312 v 18.20313 h -6.40625 v -35.32813 h 6.14063 v 9.40625 l -1,-2.40625 q 1.65625,-3.46875 5.125,-5.39062 3.46875,-1.9375 8.0625,-1.9375 5.07812,0 8.73437,2.5 3.67188,2.5 4.79688,7.5625 l -2.59375,-1.0625 q 1.59375,-4.07813 5.59375,-6.53125 4,-2.46875 9.34375,-2.46875 z m 41.98701,36.0625 q -5.67187,0 -9.96875,-2.32813 -4.29687,-2.34375 -6.67187,-6.40625 -2.35938,-4.0625 -2.35938,-9.32812 0,-5.28125 2.29688,-9.34375 2.3125,-4.0625 6.34375,-6.35938 4.03125,-2.29687 9.09375,-2.29687 5.125,0 9.0625,2.26562 3.9375,2.26563 6.17187,6.35938 2.23438,4.09375 2.23438,9.5625 0,0.40625 -0.0469,0.9375 -0.0312,0.53125 -0.0937,1 h -30.0625 v -4.59375 h 26.73438 l -2.60938,1.59375 q 0.0781,-3.40625 -1.39062,-6.0625 -1.46875,-2.67188 -4.04688,-4.17188 -2.5625,-1.5 -5.95312,-1.5 -3.32813,0 -5.9375,1.5 -2.59375,1.5 -4.0625,4.20313 -1.46875,2.70312 -1.46875,6.17187 v 1.0625 q 0,3.53125 1.625,6.29688 1.64062,2.76562 4.57812,4.29687 2.9375,1.53125 6.73438,1.53125 3.125,0 5.6875,-1.0625 2.57812,-1.0625 4.5,-3.20312 l 3.54687,4.14062 q -2.40625,2.79688 -5.96875,4.26563 -3.5625,1.46875 -7.96875,1.46875 z m 40.7937,0 q -5.67187,0 -9.96875,-2.32813 -4.29687,-2.34375 -6.67187,-6.40625 -2.35938,-4.0625 -2.35938,-9.32812 0,-5.28125 2.29688,-9.34375 2.3125,-4.0625 6.34375,-6.35938 4.03125,-2.29687 9.09375,-2.29687 5.125,0 9.0625,2.26562 3.9375,2.26563 6.17187,6.35938 2.23438,4.09375 2.23438,9.5625 0,0.40625 -0.0469,0.9375 -0.0312,0.53125 -0.0937,1 h -30.0625 v -4.59375 h 26.73438 l -2.60938,1.59375 q 0.0781,-3.40625 -1.39062,-6.0625 -1.46875,-2.67188 -4.04688,-4.17188 -2.5625,-1.5 -5.95312,-1.5 -3.32813,0 -5.9375,1.5 -2.59375,1.5 -4.0625,4.20313 -1.46875,2.70312 -1.46875,6.17187 v 1.0625 q 0,3.53125 1.625,6.29688 1.64062,2.76562 4.57812,4.29687 2.9375,1.53125 6.73438,1.53125 3.125,0 5.6875,-1.0625 2.57812,-1.0625 4.5,-3.20312 l 3.54687,4.14062 q -2.40625,2.79688 -5.96875,4.26563 -3.5625,1.46875 -7.96875,1.46875 z m 25.40305,-15.14063 -1.20312,-31.92186 h 7.53125 l -1.26563,31.92186 z m 2.59375,15.14063 q -1.875,0 -3.14062,-1.26563 -1.26563,-1.28125 -1.26563,-3 0,-1.875 1.26563,-3.0625 1.26562,-1.20312 3.14062,-1.20312 1.85938,0 3.0625,1.20312 1.20313,1.1875 1.20313,3.0625 0,1.71875 -1.20313,3 -1.20312,1.26563 -3.0625,1.26563 z"
           fill-rule="nonzero"
           id="path917" />
      </g>
    </g>
  </g>
</svg>
