<?xml version="1.0" encoding="UTF-8" standalone="no"?>
<!-- Created with Inkscape (http://www.inkscape.org/) -->

<svg
   width="49.068378mm"
   height="46.551414mm"
   viewBox="0 0 49.068378 46.551414"
   version="1.1"
   id="svg5"
   inkscape:version="1.1.2 (b8e25be8, 2022-02-05)"
   sodipodi:docname="join_in.svg"
   xmlns:inkscape="http://www.inkscape.org/namespaces/inkscape"
   xmlns:sodipodi="http://sodipodi.sourceforge.net/DTD/sodipodi-0.dtd"
   xmlns="http://www.w3.org/2000/svg"
   xmlns:svg="http://www.w3.org/2000/svg">
  <sodipodi:namedview
     id="namedview7"
     pagecolor="#ffffff"
     bordercolor="#666666"
     borderopacity="1.0"
     inkscape:pageshadow="2"
     inkscape:pageopacity="0.0"
     inkscape:pagecheckerboard="0"
     inkscape:document-units="mm"
     showgrid="false"
     fit-margin-top="0"
     fit-margin-left="0"
     fit-margin-right="0"
     fit-margin-bottom="0"
     inkscape:zoom="1.3430069"
     inkscape:cx="133.65531"
     inkscape:cy="157.48244"
     inkscape:window-width="1312"
     inkscape:window-height="755"
     inkscape:window-x="161"
     inkscape:window-y="129"
     inkscape:window-maximized="0"
     inkscape:current-layer="layer1" />
  <defs
     id="defs2">
    <clipPath
       clipPathUnits="userSpaceOnUse"
       id="clipPath1070">
      <rect
         style="opacity:0.99;fill:#035a03;fill-opacity:0.250554;stroke-width:1.88976;stroke-miterlimit:10"
         id="rect1072"
         width="185.45529"
         height="175.94235"
         x="126.34118"
         y="146.70865" />
    </clipPath>
  </defs>
  <g
     inkscape:label="Layer 1"
     inkscape:groupmode="layer"
     id="layer1"
     transform="translate(-57.557655,-89.968282)">
    <g
       style="fill:none;stroke:none;stroke-linecap:square;stroke-miterlimit:10"
       id="g854"
       transform="matrix(0.26458333,0,0,0.26458333,24.129885,51.151619)"
       clip-path="url(#clipPath1070)">
      <g
         clip-path="url(#g30a7968da52_0_0.0)"
         id="g839">
        <path
           fill="#ffffff"
           d="M 0,0 H 960 V 540 H 0 Z"
           fill-rule="evenodd"
           id="path827" />
        <path
           fill="#000000"
           fill-opacity="0"
           d="m 140.3412,146.70866 h 894.5512 v 358.6772 H 140.3412 Z"
           fill-rule="evenodd"
           id="path829" />
        <path
           fill="#190098"
           d="m 162.3412,220.23991 q -4.14063,0 -7.73438,-1.73438 -3.59375,-1.73437 -5.85937,-5 l 3.85937,-4.53125 q 1.9375,2.67188 4.35938,4.10938 2.4375,1.42187 5.375,1.42187 8,0 8,-9.46875 v -26.1875 h -16.875 v -5.79687 h 23.46875 v 31.65625 q 0,7.79687 -3.70313,11.67187 -3.6875,3.85938 -10.89062,3.85938 z"
           fill-rule="nonzero"
           id="path831" />
        <path
           fill="#190098"
           d="m 206.12965,220.38054 q -6.20313,0 -10.96875,-2.4375 -4.76563,-2.4375 -7.5,-6.70313 -2.71875,-4.26562 -2.71875,-9.79687 0,-5.53125 2.71875,-9.79688 2.73437,-4.26562 7.5,-6.65625 4.76562,-2.40625 10.96875,-2.40625 6.20312,0 11,2.40625 4.79687,2.39063 7.5,6.65625 2.70312,4.26563 2.70312,9.79688 0,5.53125 -2.70312,9.79687 -2.70313,4.26563 -7.5,6.70313 -4.79688,2.4375 -11,2.4375 z m 0,-11.73438 q 1.67187,0 3,-0.79687 1.32812,-0.8125 2.125,-2.4375 0.8125,-1.64063 0.8125,-3.96875 0,-2.39063 -0.8125,-3.95313 -0.79688,-1.57812 -2.125,-2.375 -1.32813,-0.79687 -3,-0.79687 -1.65625,0 -3,0.79687 -1.32813,0.79688 -2.125,2.375 -0.79688,1.5625 -0.79688,3.95313 0,2.32812 0.79688,3.96875 0.79687,1.625 2.125,2.4375 1.34375,0.79687 3,0.79687 z"
           fill-rule="nonzero"
           id="path833" />
        <path
           fill="#190098"
           d="m 234.79141,219.70866 v -35.32813 h 6.40625 v 35.32813 z m 3.20313,-42.125 q -1.875,0 -3.10938,-1.20313 -1.21875,-1.20312 -1.21875,-2.9375 0,-1.79687 1.21875,-2.98437 1.23438,-1.20313 3.10938,-1.20313 1.85937,0 3.09375,1.17188 1.23437,1.15625 1.23437,2.89062 0,1.79688 -1.20312,3.03125 -1.1875,1.23438 -3.125,1.23438 z m 34.25338,6.46875 q 4.34375,0 7.64063,1.67187 3.29687,1.65625 5.15625,5.0625 1.875,3.39063 1.875,8.59375 v 20.32813 h -6.40625 v -19.59375 q 0,-5.14063 -2.5,-7.73438 -2.48438,-2.59375 -7.03125,-2.59375 -3.39063,0 -5.92188,1.32813 -2.53125,1.32812 -3.90625,3.9375 -1.35937,2.59375 -1.35937,6.45312 v 18.20313 h -6.40627 v -35.32813 h 6.14064 v 9.53125 l -1,-2.53125 q 1.73438,-3.46875 5.32813,-5.39062 3.59375,-1.9375 8.39062,-1.9375 z"
           fill-rule="nonzero"
           id="path835" />
        <path
           fill="#190098"
           d="m 182.6568,302.10864 v -35.32813 h 6.40625 v 35.32813 z m 3.20312,-42.125 q -1.875,0 -3.10937,-1.20313 -1.21875,-1.20312 -1.21875,-2.93748 0,-1.79687 1.21875,-2.98437 1.23437,-1.20313 3.10937,-1.20313 1.85938,0 3.09375,1.17188 1.23438,1.15625 1.23438,2.89062 0,1.79686 -1.20313,3.03123 -1.1875,1.23438 -3.125,1.23438 z m 34.25338,6.46875 q 4.34375,0 7.64062,1.67187 3.29688,1.65625 5.15625,5.0625 1.875,3.39063 1.875,8.59375 v 20.32813 h -6.40625 v -19.59375 q 0,-5.14063 -2.5,-7.73438 -2.48437,-2.59375 -7.03125,-2.59375 -3.39062,0 -5.92187,1.32813 -2.53125,1.32812 -3.90625,3.9375 -1.35938,2.59375 -1.35938,6.45312 v 18.20313 h -6.40625 v -35.32813 h 6.14063 v 9.53125 l -1,-2.53125 q 1.73437,-3.46875 5.32812,-5.39062 3.59375,-1.9375 8.39063,-1.9375 z m 26.87735,20.92187 -1.20313,-31.92186 h 7.53125 l -1.26562,31.92186 z m 2.59375,15.14063 q -1.875,0 -3.14063,-1.26563 -1.26562,-1.28125 -1.26562,-3 0,-1.875 1.26562,-3.0625 1.26563,-1.20312 3.14063,-1.20312 1.85937,0 3.0625,1.20312 1.20312,1.1875 1.20312,3.0625 0,1.71875 -1.20312,3 -1.20313,1.26563 -3.0625,1.26563 z"
           fill-rule="nonzero"
           id="path837" />
      </g>
    </g>
  </g>
</svg>
