<?xml version="1.0" encoding="UTF-8" standalone="no"?>
<!-- Created with Inkscape (http://www.inkscape.org/) -->

<svg
   width="127.26727mm"
   height="26.9781mm"
   viewBox="0 0 127.26728 26.9781"
   version="1.1"
   id="svg5"
   inkscape:version="1.1.2 (b8e25be8, 2022-02-05)"
   sodipodi:docname="kin.svg"
   xmlns:inkscape="http://www.inkscape.org/namespaces/inkscape"
   xmlns:sodipodi="http://sodipodi.sourceforge.net/DTD/sodipodi-0.dtd"
   xmlns:xlink="http://www.w3.org/1999/xlink"
   xmlns="http://www.w3.org/2000/svg"
   xmlns:svg="http://www.w3.org/2000/svg">
  <sodipodi:namedview
     id="namedview7"
     pagecolor="#ffffff"
     bordercolor="#666666"
     borderopacity="1.0"
     inkscape:pageshadow="2"
     inkscape:pageopacity="0.0"
     inkscape:pagecheckerboard="0"
     inkscape:document-units="mm"
     showgrid="false"
     inkscape:zoom="1.3430069"
     inkscape:cx="220.02865"
     inkscape:cy="56.217135"
     inkscape:window-width="1312"
     inkscape:window-height="755"
     inkscape:window-x="0"
     inkscape:window-y="25"
     inkscape:window-maximized="0"
     inkscape:current-layer="layer1"
     fit-margin-top="0"
     fit-margin-left="0"
     fit-margin-right="0"
     fit-margin-bottom="0" />
  <defs
     id="defs2">
    <style
       id="style9">.cls-1,.cls-2,.cls-3{fill:none;}.cls-4{fill:url(#Nieuwe_verloopstaal_1-20);}.cls-5{fill:url(#Nieuwe_verloopstaal_1-21);}.cls-6{fill:url(#Nieuwe_verloopstaal_1-24);}.cls-7{fill:url(#Nieuwe_verloopstaal_1-25);}.cls-8{fill:url(#Nieuwe_verloopstaal_1-10);}.cls-9{fill:url(#Nieuwe_verloopstaal_1-22);}.cls-10{fill:url(#Nieuwe_verloopstaal_1-23);}.cls-11{fill:url(#Nieuwe_verloopstaal_1-17);}.cls-12{fill:url(#Nieuwe_verloopstaal_1-18);}.cls-13{fill:url(#Nieuwe_verloopstaal_1-12);}.cls-14{fill:url(#Nieuwe_verloopstaal_1-11);}.cls-15{fill:url(#Nieuwe_verloopstaal_1-19);}.cls-16{fill:url(#Nieuwe_verloopstaal_1-16);}.cls-17{fill:url(#Nieuwe_verloopstaal_1-15);}.cls-18{fill:url(#Nieuwe_verloopstaal_1-13);}.cls-19{fill:url(#Nieuwe_verloopstaal_1-14);}.cls-2{clip-path:url(#clippath-1);}.cls-20,.cls-21{fill:#305f70;}.cls-22{fill:url(#Nieuwe_verloopstaal_1);}.cls-21{stroke:#305f70;stroke-miterlimit:10;}.cls-23{fill:url(#Nieuwe_verloopstaal_1-3);}.cls-24{fill:url(#Nieuwe_verloopstaal_1-2);}.cls-25{fill:url(#Nieuwe_verloopstaal_1-6);}.cls-26{fill:url(#Nieuwe_verloopstaal_1-8);}.cls-27{fill:url(#Nieuwe_verloopstaal_1-5);}.cls-28{fill:url(#Nieuwe_verloopstaal_1-4);}.cls-29{fill:url(#Nieuwe_verloopstaal_1-7);}.cls-30{fill:url(#Nieuwe_verloopstaal_1-9);}.cls-31{fill:url(#Naamloos_verloop_12);}.cls-32{fill:url(#Naamloos_verloop_11);}.cls-3{clip-path:url(#clippath);}</style>
    <clipPath
       id="clippath">
      <path
         class="cls-1"
         d="M 29.08,0.13 C 28.22,0.04 27.33,0 26.4,0 l -8.13,51.27 c 0.88,0.28 1.74,0.52 2.59,0.7 0.85,0.18 1.7,0.34 2.55,0.48 0.85,0.14 1.71,0.25 2.57,0.33 0.86,0.09 1.75,0.13 2.68,0.13 L 36.79,1.65 C 35.91,1.36 35.05,1.13 34.2,0.95 33.35,0.77 32.53,0.61 31.72,0.48 30.82,0.34 29.94,0.22 29.08,0.13 M 55.21,4.27 C 54.28,4.17 53.25,4.13 52.13,4.15 L 34.24,27.34 45.09,55.45 c 1.11,0.37 2.12,0.65 3.04,0.85 0.92,0.19 1.75,0.35 2.51,0.47 0.8,0.13 1.73,0.22 2.76,0.29 1.03,0.07 2.1,0.14 3.21,0.22 L 45.59,28.41 63.52,5.96 C 62.44,5.69 61.42,5.43 60.44,5.18 59.46,4.93 58.57,4.74 57.76,4.61 57,4.49 56.16,4.38 55.22,4.28"
         id="path11" />
    </clipPath>
    <linearGradient
       id="Naamloos_verloop_11"
       x1="-152.82001"
       y1="524.40997"
       x2="-151.82001"
       y2="524.40997"
       gradientTransform="matrix(0,-129.77,129.77,0,-67980.58,-19733.07)"
       gradientUnits="userSpaceOnUse">
      <stop
         offset="0"
         stop-color="#84ae86"
         id="stop14" />
      <stop
         offset=".14"
         stop-color="#7dad8a"
         id="stop16" />
      <stop
         offset=".33"
         stop-color="#6aab97"
         id="stop18" />
      <stop
         offset=".56"
         stop-color="#4ca7ad"
         id="stop20" />
      <stop
         offset=".82"
         stop-color="#22a2ca"
         id="stop22" />
      <stop
         offset="1"
         stop-color="#009fe3"
         id="stop24" />
    </linearGradient>
    <clipPath
       id="clippath-1">
      <path
         class="cls-1"
         d="m 70.63,5.79 v 51.77 c 1.78,0.29 3.55,0.43 5.33,0.43 1.68,0 3.43,-0.14 5.26,-0.43 V 5.79 C 79.4,5.5 77.62,5.36 75.89,5.36 c -1.73,0 -3.48,0.14 -5.26,0.43 m 49.39,0 V 38.77 L 100,5.79 C 98.46,5.5 96.98,5.36 95.54,5.36 94.2,5.36 92.78,5.5 91.29,5.79 v 51.77 c 1.49,0.29 3.02,0.43 4.61,0.43 1.59,0 3.14,-0.14 4.68,-0.43 V 24.65 l 20.16,32.9 c 1.58,0.29 3.05,0.43 4.39,0.43 1.25,0 2.64,-0.14 4.18,-0.43 V 5.79 c -1.39,-0.29 -2.83,-0.43 -4.32,-0.43 -1.58,0 -3.24,0.14 -4.97,0.43"
         id="path27" />
    </clipPath>
    <linearGradient
       id="Naamloos_verloop_12"
       x1="-151.95"
       y1="524.34998"
       x2="-150.95"
       y2="524.34998"
       gradientTransform="matrix(129.77,0,0,-129.77,19732.39,68078.75)"
       gradientUnits="userSpaceOnUse">
      <stop
         offset="0"
         stop-color="#009fe3"
         id="stop30" />
      <stop
         offset="1"
         stop-color="#84ae86"
         id="stop32" />
    </linearGradient>
    <linearGradient
       id="Nieuwe_verloopstaal_1"
       x1="44.689999"
       y1="74.449997"
       x2="293.26001"
       y2="75.010002"
       gradientUnits="userSpaceOnUse">
      <stop
         offset="0"
         stop-color="#6ead94"
         id="stop35" />
      <stop
         offset="1"
         stop-color="#009fe3"
         id="stop37" />
      <stop
         offset="1"
         stop-color="#84ae86"
         id="stop39" />
    </linearGradient>
    <linearGradient
       id="Nieuwe_verloopstaal_1-2"
       x1="44.68"
       y1="76.300003"
       x2="293.25"
       y2="76.860001"
       xlink:href="#Nieuwe_verloopstaal_1" />
    <linearGradient
       id="Nieuwe_verloopstaal_1-3"
       x1="44.68"
       y1="76.220001"
       x2="293.25"
       y2="76.769997"
       xlink:href="#Nieuwe_verloopstaal_1" />
    <linearGradient
       id="Nieuwe_verloopstaal_1-4"
       x1="44.68"
       y1="76.239998"
       x2="293.25"
       y2="76.800003"
       xlink:href="#Nieuwe_verloopstaal_1" />
    <linearGradient
       id="Nieuwe_verloopstaal_1-5"
       x1="44.68"
       y1="76.160004"
       x2="293.25"
       y2="76.720001"
       xlink:href="#Nieuwe_verloopstaal_1" />
    <linearGradient
       id="Nieuwe_verloopstaal_1-6"
       x1="44.68"
       y1="74.839996"
       x2="293.26001"
       y2="75.400002"
       xlink:href="#Nieuwe_verloopstaal_1" />
    <linearGradient
       id="Nieuwe_verloopstaal_1-7"
       x1="44.68"
       y1="76.169998"
       x2="293.25"
       y2="76.730003"
       xlink:href="#Nieuwe_verloopstaal_1" />
    <linearGradient
       id="Nieuwe_verloopstaal_1-8"
       x1="44.68"
       y1="76.150002"
       x2="293.25"
       y2="76.709999"
       xlink:href="#Nieuwe_verloopstaal_1" />
    <linearGradient
       id="Nieuwe_verloopstaal_1-9"
       x1="44.68"
       y1="76.080002"
       x2="293.25"
       y2="76.629997"
       xlink:href="#Nieuwe_verloopstaal_1" />
    <linearGradient
       id="Nieuwe_verloopstaal_1-10"
       x1="44.68"
       y1="76.110001"
       x2="293.25"
       y2="76.669998"
       xlink:href="#Nieuwe_verloopstaal_1" />
    <linearGradient
       id="Nieuwe_verloopstaal_1-11"
       x1="44.689999"
       y1="74.050003"
       x2="293.26001"
       y2="74.610001"
       xlink:href="#Nieuwe_verloopstaal_1" />
    <linearGradient
       id="Nieuwe_verloopstaal_1-12"
       x1="44.68"
       y1="74.739998"
       x2="293.26001"
       y2="75.290001"
       xlink:href="#Nieuwe_verloopstaal_1" />
    <linearGradient
       id="Nieuwe_verloopstaal_1-13"
       x1="44.689999"
       y1="74.019997"
       x2="293.26001"
       y2="74.580002"
       xlink:href="#Nieuwe_verloopstaal_1" />
    <linearGradient
       id="Nieuwe_verloopstaal_1-14"
       x1="44.68"
       y1="76.040001"
       x2="293.25"
       y2="76.599998"
       xlink:href="#Nieuwe_verloopstaal_1" />
    <linearGradient
       id="Nieuwe_verloopstaal_1-15"
       x1="44.68"
       y1="76.019997"
       x2="293.25"
       y2="76.580002"
       xlink:href="#Nieuwe_verloopstaal_1" />
    <linearGradient
       id="Nieuwe_verloopstaal_1-16"
       x1="44.68"
       y1="75.980003"
       x2="293.25"
       y2="76.540001"
       xlink:href="#Nieuwe_verloopstaal_1" />
    <linearGradient
       id="Nieuwe_verloopstaal_1-17"
       x1="44.68"
       y1="75.970001"
       x2="293.25"
       y2="76.529999"
       xlink:href="#Nieuwe_verloopstaal_1" />
    <linearGradient
       id="Nieuwe_verloopstaal_1-18"
       x1="44.68"
       y1="75.949997"
       x2="293.25"
       y2="76.510002"
       xlink:href="#Nieuwe_verloopstaal_1" />
    <linearGradient
       id="Nieuwe_verloopstaal_1-19"
       x1="44.68"
       y1="75.940002"
       x2="293.25"
       y2="76.489998"
       xlink:href="#Nieuwe_verloopstaal_1" />
    <linearGradient
       id="Nieuwe_verloopstaal_1-20"
       x1="44.68"
       y1="75.860001"
       x2="293.25"
       y2="76.419998"
       xlink:href="#Nieuwe_verloopstaal_1" />
    <linearGradient
       id="Nieuwe_verloopstaal_1-21"
       x1="44.68"
       y1="75.889999"
       x2="293.25"
       y2="76.449997"
       xlink:href="#Nieuwe_verloopstaal_1" />
    <linearGradient
       id="Nieuwe_verloopstaal_1-22"
       x1="44.689999"
       y1="73.889999"
       x2="293.26001"
       y2="74.449997"
       xlink:href="#Nieuwe_verloopstaal_1" />
    <linearGradient
       id="Nieuwe_verloopstaal_1-23"
       x1="44.689999"
       y1="73.879997"
       x2="293.26001"
       y2="74.440002"
       xlink:href="#Nieuwe_verloopstaal_1" />
    <linearGradient
       id="Nieuwe_verloopstaal_1-24"
       x1="44.68"
       y1="75.839996"
       x2="293.25"
       y2="76.400002"
       xlink:href="#Nieuwe_verloopstaal_1" />
    <linearGradient
       id="Nieuwe_verloopstaal_1-25"
       x1="44.68"
       y1="75.760002"
       x2="293.25"
       y2="76.32"
       xlink:href="#Nieuwe_verloopstaal_1" />
    <linearGradient
       inkscape:collect="always"
       xlink:href="#Nieuwe_verloopstaal_1"
       id="linearGradient344"
       gradientUnits="userSpaceOnUse"
       x1="44.689999"
       y1="74.449997"
       x2="293.26001"
       y2="75.010002" />
  </defs>
  <g
     inkscape:label="Layer 1"
     inkscape:groupmode="layer"
     id="layer1"
     transform="translate(-41.366364,-135.01096)">
    <g
       id="g318"
       transform="matrix(0.26458333,0,0,0.26458333,66.833791,136.89178)">
      <path
         class="cls-21"
         d="m 41.24,78.74 c -0.78,0 -1.51,0.22 -2.28,0.35 -0.75,0.13 -1.51,0.23 -2.28,0.29 -1.54,0.11 -3.08,0.09 -4.62,-0.07 C 28.97,79 25.93,78.17 23.08,76.95 16.58,74.15 11.35,69.18 7.36,63.41 4.92,59.88 2.94,56.04 1.32,52.07 1.1,51.54 0.33,51.96 0.53,52.49 c 2.83,7.35 6.91,14.36 12.78,19.69 4.9,4.45 10.95,7.64 17.54,8.6 1.78,0.26 3.59,0.35 5.38,0.25 0.9,-0.05 1.8,-0.14 2.7,-0.28 0.89,-0.14 1.8,-0.27 2.6,-0.71 0.58,-0.32 0.41,-1.3 -0.3,-1.3 z"
         id="path68" />
      <path
         class="cls-21"
         d="m 39.78,84.05 c -8.58,0.7 -17.39,-1.85 -24.3,-6.99 -1.99,-1.48 -3.82,-3.18 -5.46,-5.04 -0.26,-0.3 -0.71,0.12 -0.45,0.42 5.82,6.69 13.99,11.09 22.73,12.48 2.46,0.39 4.95,0.53 7.44,0.41 0.83,-0.04 0.85,-1.35 0.04,-1.28 z"
         id="path70" />
      <path
         class="cls-21"
         d="m 28.66,86.69 c -1.2,-0.39 -2.51,-0.47 -3.73,-0.81 -1.31,-0.36 -2.59,-0.83 -3.82,-1.39 -2.4,-1.1 -4.62,-2.52 -6.61,-4.26 -0.33,-0.29 -0.85,0.18 -0.51,0.48 2.06,1.8 4.36,3.3 6.86,4.41 1.19,0.53 2.42,0.98 3.67,1.34 1.26,0.37 2.72,0.85 4.04,0.78 0.31,-0.01 0.41,-0.45 0.09,-0.55 z"
         id="path72" />
      <path
         class="cls-21"
         d="m 30.54,75.82 c -0.5,-0.18 -1.06,-0.15 -1.59,-0.19 -0.65,-0.05 -1.3,-0.15 -1.93,-0.31 -1.21,-0.31 -2.33,-0.82 -3.37,-1.5 -0.35,-0.23 -0.68,0.32 -0.34,0.55 1.1,0.74 2.32,1.31 3.61,1.65 1.07,0.29 2.6,0.69 3.66,0.2 0.18,-0.08 0.13,-0.34 -0.04,-0.4 z"
         id="path74" />
      <g
         class="cls-3"
         clip-path="url(#clippath)"
         id="g78">
        <rect
           class="cls-32"
           x="46.830002"
           y="-18"
           width="52.990002"
           height="103.43"
           transform="rotate(-80.79,73.332387,33.71999)"
           id="rect76"
           style="fill:url(#Naamloos_verloop_11)" />
      </g>
      <g
         class="cls-2"
         clip-path="url(#clippath-1)"
         id="g82">
        <rect
           class="cls-31"
           x="25.969999"
           y="5.1799998"
           width="103.43"
           height="52.990002"
           transform="rotate(-0.2,77.294224,31.647647)"
           id="rect80"
           style="fill:url(#Naamloos_verloop_12)" />
      </g>
      <path
         class="cls-20"
         d="m 138.65,48.7 c 0.11,-0.02 0.22,-0.03 0.33,-0.04 0.11,0 0.23,-0.01 0.34,-0.01 0.11,0 0.23,0 0.35,0.01 0.11,0 0.23,0.02 0.33,0.04 v 9.54 c -0.11,0.02 -0.21,0.03 -0.33,0.04 -0.11,0 -0.23,0.01 -0.35,0.01 -0.12,0 -0.23,0 -0.35,-0.01 -0.12,0 -0.23,-0.02 -0.33,-0.04 V 48.7 Z"
         id="path84" />
      <path
         class="cls-20"
         d="m 142.23,51.43 c 0.1,-0.02 0.19,-0.03 0.29,-0.04 0.1,-0.01 0.19,-0.01 0.29,-0.01 0.1,0 0.19,0 0.27,0.01 0.08,0.01 0.17,0.02 0.27,0.04 0.03,0.13 0.05,0.31 0.08,0.54 0.03,0.23 0.04,0.41 0.04,0.56 0.09,-0.15 0.2,-0.3 0.34,-0.45 0.14,-0.15 0.29,-0.29 0.47,-0.4 0.18,-0.12 0.38,-0.22 0.61,-0.29 0.23,-0.08 0.48,-0.11 0.76,-0.11 0.78,0 1.35,0.22 1.72,0.67 0.37,0.45 0.56,1.11 0.56,1.98 v 4.31 c -0.1,0.02 -0.21,0.03 -0.33,0.04 -0.12,0 -0.23,0.01 -0.33,0.01 -0.1,0 -0.21,0 -0.32,-0.01 -0.12,0 -0.23,-0.02 -0.33,-0.04 v -3.95 c 0,-0.63 -0.1,-1.09 -0.29,-1.39 -0.2,-0.3 -0.5,-0.44 -0.93,-0.44 -0.25,0 -0.48,0.04 -0.7,0.13 -0.22,0.09 -0.42,0.23 -0.58,0.41 -0.17,0.19 -0.3,0.43 -0.4,0.72 -0.1,0.29 -0.15,0.65 -0.15,1.07 v 3.45 c -0.1,0.02 -0.21,0.03 -0.33,0.04 -0.12,0 -0.23,0.01 -0.33,0.01 -0.1,0 -0.21,0 -0.33,-0.01 -0.12,0 -0.23,-0.02 -0.33,-0.04 v -6.81 z"
         id="path86" />
      <path
         class="cls-20"
         d="m 150.3,52.47 h -0.86 c -0.02,-0.07 -0.03,-0.15 -0.04,-0.25 -0.01,-0.1 -0.01,-0.18 -0.01,-0.27 0,-0.09 0,-0.18 0.01,-0.27 0.01,-0.09 0.02,-0.17 0.04,-0.25 h 2.15 v 6.81 c -0.1,0.02 -0.21,0.03 -0.33,0.04 -0.12,0 -0.23,0.01 -0.33,0.01 -0.09,0 -0.19,0 -0.31,-0.01 -0.12,0 -0.23,-0.02 -0.33,-0.04 v -5.77 z m -0.29,-2.53 c -0.02,-0.11 -0.03,-0.22 -0.03,-0.35 0,-0.12 0,-0.23 0,-0.33 0,-0.1 0,-0.21 0,-0.33 0,-0.12 0.02,-0.23 0.03,-0.33 0.11,-0.02 0.24,-0.03 0.37,-0.04 0.13,-0.01 0.25,-0.01 0.35,-0.01 0.1,0 0.21,0 0.34,0.01 0.13,0.01 0.25,0.02 0.36,0.04 0.02,0.1 0.03,0.21 0.03,0.33 0,0.12 0,0.23 0,0.33 0,0.1 0,0.21 0,0.33 0,0.12 -0.02,0.24 -0.03,0.35 -0.11,0.02 -0.22,0.03 -0.35,0.04 -0.13,0 -0.24,0.01 -0.34,0.01 -0.11,0 -0.23,0 -0.36,-0.01 -0.13,-0.01 -0.26,-0.02 -0.37,-0.04 z"
         id="path88" />
      <path
         class="cls-20"
         d="m 153.97,52.48 h -1.03 l -0.05,-0.19 2.28,-2.55 h 0.11 v 1.69 H 157 c 0.04,0.15 0.05,0.32 0.05,0.5 0,0.1 0,0.19 -0.01,0.28 0,0.09 -0.02,0.18 -0.04,0.27 h -1.72 v 3.1 c 0,0.37 0.01,0.67 0.05,0.89 0.03,0.22 0.08,0.39 0.16,0.51 0.08,0.12 0.18,0.2 0.31,0.24 0.13,0.04 0.29,0.06 0.48,0.06 0.15,0 0.29,-0.01 0.42,-0.03 0.13,-0.02 0.25,-0.05 0.36,-0.07 0.06,0.18 0.1,0.36 0.11,0.54 0.01,0.19 0.02,0.35 0.02,0.49 -0.18,0.04 -0.36,0.08 -0.56,0.1 -0.2,0.02 -0.4,0.03 -0.62,0.03 -0.64,0 -1.13,-0.15 -1.49,-0.46 -0.36,-0.31 -0.54,-0.82 -0.54,-1.54 v -3.86 z"
         id="path90" />
      <path
         class="cls-20"
         d="m 158.87,52.47 h -0.86 c -0.02,-0.07 -0.03,-0.15 -0.04,-0.25 -0.01,-0.1 -0.01,-0.18 -0.01,-0.27 0,-0.09 0,-0.18 0.01,-0.27 0.01,-0.09 0.02,-0.17 0.04,-0.25 h 2.15 v 6.81 c -0.1,0.02 -0.21,0.03 -0.32,0.04 -0.12,0 -0.23,0.01 -0.33,0.01 -0.09,0 -0.19,0 -0.31,-0.01 -0.12,0 -0.23,-0.02 -0.32,-0.04 v -5.77 z m -0.29,-2.53 c -0.02,-0.11 -0.03,-0.22 -0.03,-0.35 0,-0.12 0,-0.23 0,-0.33 0,-0.1 0,-0.21 0,-0.33 0,-0.12 0.01,-0.23 0.03,-0.33 0.11,-0.02 0.24,-0.03 0.37,-0.04 0.13,-0.01 0.25,-0.01 0.34,-0.01 0.09,0 0.21,0 0.35,0.01 0.13,0 0.25,0.02 0.36,0.04 0.02,0.1 0.03,0.21 0.03,0.33 0,0.12 0,0.23 0,0.33 0,0.1 0,0.21 0,0.33 0,0.12 -0.02,0.24 -0.03,0.35 -0.11,0.02 -0.22,0.03 -0.35,0.04 -0.13,0 -0.24,0.01 -0.34,0.01 -0.11,0 -0.23,0 -0.36,-0.01 -0.13,-0.01 -0.26,-0.02 -0.37,-0.04 z"
         id="path92" />
      <path
         class="cls-20"
         d="m 165.89,53.76 c 0,-0.52 -0.13,-0.88 -0.4,-1.09 -0.26,-0.2 -0.65,-0.31 -1.15,-0.31 -0.31,0 -0.6,0.02 -0.87,0.07 -0.27,0.05 -0.53,0.11 -0.79,0.19 -0.17,-0.29 -0.25,-0.64 -0.25,-1.05 0.3,-0.1 0.63,-0.17 1,-0.23 0.36,-0.05 0.71,-0.08 1.05,-0.08 0.88,0 1.56,0.2 2.02,0.6 0.46,0.4 0.69,1.05 0.69,1.93 v 4.26 c -0.31,0.07 -0.69,0.14 -1.13,0.22 -0.44,0.08 -0.89,0.11 -1.35,0.11 -0.43,0 -0.83,-0.04 -1.17,-0.12 -0.35,-0.08 -0.65,-0.21 -0.89,-0.38 -0.24,-0.18 -0.43,-0.4 -0.56,-0.68 -0.13,-0.27 -0.2,-0.61 -0.2,-1 0,-0.39 0.08,-0.71 0.23,-1 0.15,-0.29 0.37,-0.53 0.63,-0.72 0.27,-0.19 0.57,-0.33 0.92,-0.42 0.34,-0.09 0.71,-0.14 1.09,-0.14 0.28,0 0.51,0 0.7,0.02 0.19,0.02 0.33,0.03 0.46,0.05 v -0.25 z m 0,1.29 c -0.13,-0.02 -0.3,-0.04 -0.5,-0.05 -0.2,-0.02 -0.38,-0.03 -0.52,-0.03 -0.55,0 -0.97,0.1 -1.25,0.31 -0.29,0.2 -0.43,0.51 -0.43,0.93 0,0.27 0.05,0.47 0.15,0.62 0.1,0.15 0.22,0.27 0.36,0.35 0.15,0.08 0.31,0.13 0.48,0.15 0.17,0.02 0.34,0.03 0.5,0.03 0.2,0 0.41,-0.01 0.63,-0.03 0.22,-0.02 0.41,-0.06 0.58,-0.1 v -2.16 z"
         id="path94" />
      <path
         class="cls-20"
         d="m 169.4,52.48 h -1.04 l -0.05,-0.19 2.28,-2.55 h 0.11 v 1.69 h 1.72 c 0.04,0.15 0.05,0.32 0.05,0.5 0,0.1 0,0.19 -0.01,0.28 0,0.09 -0.02,0.18 -0.04,0.27 h -1.72 v 3.1 c 0,0.37 0.01,0.67 0.05,0.89 0.04,0.22 0.08,0.39 0.16,0.51 0.08,0.12 0.18,0.2 0.31,0.24 0.13,0.04 0.29,0.06 0.48,0.06 0.15,0 0.29,-0.01 0.42,-0.03 0.13,-0.02 0.25,-0.05 0.36,-0.07 0.06,0.18 0.1,0.36 0.11,0.54 0.01,0.19 0.02,0.35 0.02,0.49 -0.18,0.04 -0.36,0.08 -0.56,0.1 -0.2,0.02 -0.4,0.03 -0.62,0.03 -0.64,0 -1.13,-0.15 -1.49,-0.46 -0.36,-0.31 -0.54,-0.82 -0.54,-1.54 z"
         id="path96" />
      <path
         class="cls-20"
         d="m 174.3,52.47 h -0.86 c -0.02,-0.07 -0.03,-0.15 -0.04,-0.25 -0.01,-0.1 -0.01,-0.18 -0.01,-0.27 0,-0.09 0,-0.18 0.01,-0.27 0.01,-0.09 0.02,-0.17 0.04,-0.25 h 2.15 v 6.81 c -0.1,0.02 -0.21,0.03 -0.32,0.04 -0.12,0 -0.23,0.01 -0.33,0.01 -0.09,0 -0.19,0 -0.31,-0.01 -0.12,0 -0.23,-0.02 -0.32,-0.04 v -5.77 z m -0.29,-2.53 c -0.02,-0.11 -0.03,-0.22 -0.03,-0.35 0,-0.12 0,-0.23 0,-0.33 0,-0.1 0,-0.21 0,-0.33 0,-0.12 0.01,-0.23 0.03,-0.33 0.11,-0.02 0.24,-0.03 0.37,-0.04 0.13,-0.01 0.25,-0.01 0.34,-0.01 0.09,0 0.21,0 0.35,0.01 0.13,0 0.25,0.02 0.36,0.04 0.02,0.1 0.03,0.21 0.03,0.33 0,0.12 0,0.23 0,0.33 0,0.1 0,0.21 0,0.33 0,0.12 -0.02,0.24 -0.03,0.35 -0.11,0.02 -0.22,0.03 -0.35,0.04 -0.13,0 -0.24,0.01 -0.34,0.01 -0.11,0 -0.23,0 -0.36,-0.01 -0.13,-0.01 -0.26,-0.02 -0.37,-0.04 z"
         id="path98" />
      <path
         class="cls-20"
         d="m 178.7,55.16 c 0.02,0.74 0.21,1.29 0.58,1.63 0.37,0.35 0.91,0.52 1.63,0.52 0.63,0 1.22,-0.11 1.79,-0.33 0.07,0.13 0.13,0.29 0.17,0.48 0.04,0.19 0.07,0.38 0.08,0.56 -0.29,0.12 -0.61,0.22 -0.96,0.28 -0.35,0.06 -0.74,0.09 -1.16,0.09 -0.62,0 -1.15,-0.09 -1.59,-0.26 -0.44,-0.17 -0.81,-0.42 -1.09,-0.73 -0.29,-0.31 -0.5,-0.69 -0.63,-1.11 -0.13,-0.43 -0.2,-0.9 -0.2,-1.41 0,-0.51 0.06,-0.98 0.19,-1.41 0.13,-0.44 0.33,-0.82 0.59,-1.14 0.27,-0.32 0.6,-0.58 1,-0.77 0.4,-0.19 0.88,-0.29 1.43,-0.29 0.47,0 0.88,0.08 1.23,0.24 0.35,0.16 0.65,0.38 0.89,0.66 0.24,0.28 0.42,0.61 0.54,1 0.12,0.38 0.19,0.8 0.19,1.25 0,0.12 0,0.25 -0.01,0.39 -0.01,0.14 -0.02,0.25 -0.03,0.35 h -4.63 z m 3.37,-0.98 c 0,-0.25 -0.03,-0.48 -0.1,-0.71 -0.07,-0.23 -0.16,-0.42 -0.29,-0.59 -0.13,-0.17 -0.29,-0.3 -0.49,-0.4 -0.2,-0.1 -0.44,-0.15 -0.71,-0.15 -0.54,0 -0.95,0.16 -1.24,0.49 -0.29,0.33 -0.46,0.78 -0.52,1.37 h 3.36 z"
         id="path100" />
      <path
         class="cls-20"
         d="m 185.5,52.47 h -1.11 c -0.04,-0.14 -0.05,-0.31 -0.05,-0.52 0,-0.21 0.02,-0.37 0.05,-0.52 h 1.11 v -0.48 c 0,-0.84 0.21,-1.48 0.63,-1.92 0.42,-0.44 1.03,-0.66 1.84,-0.66 0.22,0 0.42,0.01 0.58,0.03 0.17,0.02 0.33,0.06 0.48,0.1 -0.02,0.22 -0.04,0.41 -0.07,0.57 -0.03,0.16 -0.07,0.32 -0.13,0.49 -0.09,-0.02 -0.19,-0.04 -0.31,-0.06 -0.12,-0.02 -0.26,-0.03 -0.43,-0.03 -0.2,0 -0.37,0.02 -0.52,0.06 -0.15,0.04 -0.29,0.12 -0.4,0.23 -0.11,0.11 -0.2,0.27 -0.26,0.46 -0.06,0.2 -0.09,0.45 -0.09,0.76 v 0.44 h 1.74 c 0.03,0.18 0.04,0.36 0.04,0.54 0,0.17 -0.01,0.33 -0.04,0.49 h -1.74 v 5.77 c -0.1,0.02 -0.21,0.03 -0.33,0.04 -0.12,0 -0.23,0.01 -0.33,0.01 -0.1,0 -0.21,0 -0.33,-0.01 -0.12,0 -0.23,-0.02 -0.33,-0.04 v -5.77 z"
         id="path102" />
      <path
         class="cls-20"
         d="m 193.19,48.7 c 0.1,-0.02 0.2,-0.03 0.31,-0.04 0.11,-0.01 0.21,-0.01 0.31,-0.01 0.1,0 0.2,0 0.31,0.01 0.11,0 0.21,0.02 0.31,0.04 l 4.15,7.16 V 48.7 c 0.11,-0.02 0.22,-0.03 0.33,-0.04 0.11,-0.01 0.23,-0.01 0.34,-0.01 0.1,0 0.2,0 0.31,0.01 0.11,0 0.21,0.02 0.3,0.04 v 9.54 c -0.1,0.02 -0.2,0.03 -0.31,0.04 -0.11,0 -0.21,0.01 -0.31,0.01 -0.1,0 -0.2,0 -0.31,-0.01 -0.11,0 -0.21,-0.02 -0.31,-0.04 l -4.17,-7.12 v 7.12 c -0.1,0.02 -0.2,0.03 -0.31,0.04 -0.11,0 -0.22,0.01 -0.33,0.01 -0.12,0 -0.23,0 -0.34,-0.01 -0.11,0 -0.21,-0.02 -0.3,-0.04 V 48.7 Z"
         id="path104" />
      <path
         class="cls-20"
         d="m 203.09,55.16 c 0.02,0.74 0.21,1.29 0.58,1.63 0.37,0.35 0.91,0.52 1.63,0.52 0.63,0 1.22,-0.11 1.79,-0.33 0.07,0.13 0.13,0.29 0.17,0.48 0.04,0.19 0.07,0.38 0.08,0.56 -0.29,0.12 -0.61,0.22 -0.96,0.28 -0.35,0.06 -0.74,0.09 -1.16,0.09 -0.62,0 -1.15,-0.09 -1.59,-0.26 -0.44,-0.17 -0.81,-0.42 -1.09,-0.73 -0.29,-0.31 -0.5,-0.69 -0.63,-1.11 -0.13,-0.43 -0.2,-0.9 -0.2,-1.41 0,-0.51 0.06,-0.98 0.19,-1.41 0.13,-0.44 0.33,-0.82 0.59,-1.14 0.27,-0.32 0.6,-0.58 1,-0.77 0.4,-0.19 0.88,-0.29 1.43,-0.29 0.47,0 0.88,0.08 1.23,0.24 0.35,0.16 0.65,0.38 0.89,0.66 0.24,0.28 0.42,0.61 0.54,1 0.12,0.38 0.19,0.8 0.19,1.25 0,0.12 0,0.25 -0.01,0.39 -0.01,0.14 -0.02,0.25 -0.03,0.35 h -4.63 z m 3.37,-0.98 c 0,-0.25 -0.03,-0.48 -0.1,-0.71 -0.07,-0.23 -0.16,-0.42 -0.29,-0.59 -0.13,-0.17 -0.29,-0.3 -0.49,-0.4 -0.2,-0.1 -0.44,-0.15 -0.71,-0.15 -0.54,0 -0.95,0.16 -1.24,0.49 -0.29,0.33 -0.46,0.78 -0.52,1.37 h 3.36 z"
         id="path106" />
      <path
         class="cls-20"
         d="m 213.85,48.52 c 0.1,-0.02 0.21,-0.03 0.33,-0.04 0.12,0 0.23,-0.01 0.32,-0.01 0.1,0 0.21,0 0.32,0.01 0.12,0 0.23,0.02 0.33,0.04 v 9.54 c -0.34,0.1 -0.71,0.18 -1.13,0.25 -0.42,0.07 -0.88,0.1 -1.39,0.1 -0.48,0 -0.93,-0.06 -1.36,-0.18 -0.43,-0.12 -0.8,-0.32 -1.12,-0.59 -0.32,-0.27 -0.57,-0.63 -0.76,-1.06 -0.19,-0.43 -0.28,-0.97 -0.28,-1.61 0,-0.55 0.08,-1.05 0.25,-1.5 0.16,-0.45 0.4,-0.84 0.7,-1.16 0.3,-0.32 0.66,-0.57 1.08,-0.75 0.42,-0.18 0.89,-0.27 1.4,-0.27 0.23,0 0.46,0.02 0.7,0.05 0.23,0.04 0.44,0.08 0.62,0.13 v -2.96 z m 0,4.07 c -0.18,-0.07 -0.37,-0.12 -0.57,-0.16 -0.2,-0.04 -0.42,-0.05 -0.66,-0.05 -0.36,0 -0.68,0.07 -0.94,0.2 -0.27,0.13 -0.48,0.31 -0.66,0.54 -0.17,0.23 -0.3,0.5 -0.38,0.82 -0.08,0.31 -0.13,0.66 -0.13,1.03 0,0.84 0.21,1.44 0.6,1.8 0.39,0.36 0.92,0.54 1.59,0.54 0.23,0 0.44,-0.01 0.64,-0.03 0.2,-0.02 0.37,-0.06 0.52,-0.1 v -4.59 z"
         id="path108" />
      <path
         class="cls-20"
         d="m 218.24,55.16 c 0.02,0.74 0.21,1.29 0.58,1.63 0.37,0.35 0.91,0.52 1.63,0.52 0.63,0 1.22,-0.11 1.79,-0.33 0.07,0.13 0.13,0.29 0.17,0.48 0.04,0.19 0.07,0.38 0.08,0.56 -0.29,0.12 -0.61,0.22 -0.96,0.28 -0.35,0.06 -0.74,0.09 -1.16,0.09 -0.62,0 -1.15,-0.09 -1.59,-0.26 -0.44,-0.17 -0.81,-0.42 -1.09,-0.73 -0.29,-0.31 -0.5,-0.69 -0.63,-1.11 -0.13,-0.43 -0.2,-0.9 -0.2,-1.41 0,-0.51 0.06,-0.98 0.19,-1.41 0.13,-0.44 0.33,-0.82 0.59,-1.14 0.27,-0.32 0.6,-0.58 1,-0.77 0.4,-0.19 0.88,-0.29 1.43,-0.29 0.47,0 0.88,0.08 1.23,0.24 0.35,0.16 0.65,0.38 0.89,0.66 0.24,0.28 0.42,0.61 0.54,1 0.12,0.38 0.19,0.8 0.19,1.25 0,0.12 0,0.25 -0.01,0.39 -0.01,0.14 -0.02,0.25 -0.03,0.35 h -4.63 z m 3.37,-0.98 c 0,-0.25 -0.03,-0.48 -0.1,-0.71 -0.07,-0.23 -0.16,-0.42 -0.29,-0.59 -0.13,-0.17 -0.29,-0.3 -0.49,-0.4 -0.2,-0.1 -0.44,-0.15 -0.71,-0.15 -0.54,0 -0.95,0.16 -1.24,0.49 -0.29,0.33 -0.46,0.78 -0.52,1.37 h 3.36 z"
         id="path110" />
      <path
         class="cls-20"
         d="m 224.64,51.43 c 0.1,-0.02 0.19,-0.03 0.28,-0.04 0.09,0 0.18,-0.01 0.28,-0.01 0.1,0 0.19,0 0.29,0.01 0.1,0 0.19,0.02 0.27,0.04 0.03,0.13 0.05,0.31 0.08,0.52 0.03,0.21 0.04,0.4 0.04,0.55 0.19,-0.3 0.43,-0.56 0.74,-0.78 0.3,-0.22 0.7,-0.33 1.17,-0.33 0.07,0 0.14,0 0.22,0 0.08,0 0.14,0.01 0.19,0.02 0.02,0.08 0.03,0.16 0.04,0.25 0,0.09 0.01,0.18 0.01,0.28 0,0.11 0,0.22 -0.02,0.33 -0.01,0.12 -0.03,0.23 -0.05,0.33 -0.07,-0.02 -0.14,-0.03 -0.22,-0.03 h -0.18 c -0.24,0 -0.47,0.03 -0.68,0.1 -0.21,0.07 -0.41,0.18 -0.58,0.35 -0.17,0.17 -0.31,0.4 -0.41,0.69 -0.1,0.29 -0.15,0.67 -0.15,1.13 v 3.38 c -0.1,0.02 -0.21,0.03 -0.33,0.04 -0.12,0 -0.23,0.01 -0.33,0.01 -0.1,0 -0.21,0 -0.33,-0.01 -0.12,0 -0.23,-0.02 -0.34,-0.04 v -6.81 z"
         id="path112" />
      <path
         class="cls-20"
         d="m 229.55,48.52 c 0.1,-0.02 0.21,-0.03 0.33,-0.04 0.12,0 0.23,-0.01 0.32,-0.01 0.09,0 0.21,0 0.33,0.01 0.12,0 0.23,0.02 0.33,0.04 v 7.67 c 0,0.25 0.02,0.44 0.07,0.58 0.04,0.14 0.1,0.25 0.18,0.33 0.07,0.08 0.16,0.12 0.26,0.15 0.1,0.02 0.21,0.03 0.33,0.03 0.08,0 0.17,0 0.27,-0.01 0.1,0 0.19,-0.02 0.26,-0.04 0.08,0.31 0.12,0.65 0.12,1.01 -0.12,0.04 -0.27,0.07 -0.45,0.09 -0.18,0.01 -0.34,0.02 -0.49,0.02 -0.26,0 -0.5,-0.03 -0.72,-0.09 -0.22,-0.06 -0.42,-0.16 -0.58,-0.31 -0.16,-0.15 -0.3,-0.33 -0.4,-0.57 -0.1,-0.24 -0.15,-0.54 -0.15,-0.89 v -7.96 z"
         id="path114" />
      <path
         class="cls-20"
         d="m 237.12,53.76 c 0,-0.52 -0.13,-0.88 -0.4,-1.09 -0.26,-0.2 -0.65,-0.31 -1.15,-0.31 -0.31,0 -0.6,0.02 -0.87,0.07 -0.27,0.05 -0.53,0.11 -0.79,0.19 -0.17,-0.29 -0.25,-0.64 -0.25,-1.05 0.3,-0.1 0.63,-0.17 1,-0.23 0.36,-0.05 0.71,-0.08 1.05,-0.08 0.88,0 1.56,0.2 2.02,0.6 0.46,0.4 0.69,1.05 0.69,1.93 v 4.26 c -0.31,0.07 -0.69,0.14 -1.13,0.22 -0.44,0.08 -0.89,0.11 -1.35,0.11 -0.43,0 -0.83,-0.04 -1.17,-0.12 -0.35,-0.08 -0.65,-0.21 -0.89,-0.38 -0.24,-0.18 -0.43,-0.4 -0.56,-0.68 -0.13,-0.27 -0.2,-0.61 -0.2,-1 0,-0.39 0.08,-0.71 0.23,-1 0.15,-0.29 0.37,-0.53 0.63,-0.72 0.27,-0.19 0.57,-0.33 0.92,-0.42 0.34,-0.09 0.71,-0.14 1.09,-0.14 0.28,0 0.51,0 0.7,0.02 0.19,0.02 0.33,0.03 0.46,0.05 v -0.25 z m 0,1.29 c -0.13,-0.02 -0.3,-0.04 -0.5,-0.05 -0.2,-0.02 -0.38,-0.03 -0.52,-0.03 -0.55,0 -0.97,0.1 -1.25,0.31 -0.29,0.2 -0.43,0.51 -0.43,0.93 0,0.27 0.05,0.47 0.15,0.62 0.1,0.15 0.22,0.27 0.36,0.35 0.15,0.08 0.31,0.13 0.48,0.15 0.17,0.02 0.34,0.03 0.5,0.03 0.2,0 0.41,-0.01 0.63,-0.03 0.22,-0.02 0.41,-0.06 0.58,-0.1 v -2.16 z"
         id="path116" />
      <path
         class="cls-20"
         d="m 240.39,51.43 c 0.1,-0.02 0.19,-0.03 0.29,-0.04 0.1,-0.01 0.19,-0.01 0.29,-0.01 0.1,0 0.19,0 0.27,0.01 0.08,0 0.17,0.02 0.27,0.04 0.03,0.13 0.05,0.31 0.08,0.54 0.03,0.23 0.04,0.41 0.04,0.56 0.09,-0.15 0.2,-0.3 0.34,-0.45 0.14,-0.15 0.29,-0.29 0.47,-0.4 0.18,-0.11 0.38,-0.22 0.61,-0.29 0.23,-0.08 0.48,-0.11 0.76,-0.11 0.78,0 1.35,0.22 1.72,0.67 0.37,0.45 0.56,1.11 0.56,1.98 v 4.31 c -0.1,0.02 -0.21,0.03 -0.33,0.04 -0.12,0 -0.23,0.01 -0.33,0.01 -0.1,0 -0.21,0 -0.33,-0.01 -0.12,0 -0.23,-0.02 -0.33,-0.04 v -3.95 c 0,-0.63 -0.1,-1.09 -0.29,-1.39 -0.2,-0.3 -0.5,-0.44 -0.93,-0.44 -0.25,0 -0.48,0.04 -0.7,0.13 -0.22,0.09 -0.42,0.23 -0.58,0.41 -0.17,0.19 -0.3,0.43 -0.41,0.72 -0.11,0.29 -0.15,0.65 -0.15,1.07 v 3.45 c -0.1,0.02 -0.21,0.03 -0.33,0.04 -0.12,0 -0.23,0.01 -0.33,0.01 -0.1,0 -0.21,0 -0.33,-0.01 -0.12,0 -0.24,-0.02 -0.33,-0.04 z"
         id="path118" />
      <path
         class="cls-20"
         d="m 252.42,48.52 c 0.1,-0.02 0.21,-0.03 0.33,-0.04 0.12,0 0.23,-0.01 0.32,-0.01 0.1,0 0.21,0 0.32,0.01 0.12,0 0.23,0.02 0.33,0.04 v 9.54 c -0.34,0.1 -0.71,0.18 -1.13,0.25 -0.42,0.07 -0.88,0.1 -1.39,0.1 -0.48,0 -0.93,-0.06 -1.36,-0.18 -0.43,-0.12 -0.8,-0.32 -1.12,-0.59 -0.32,-0.27 -0.57,-0.63 -0.76,-1.06 -0.19,-0.43 -0.28,-0.97 -0.28,-1.61 0,-0.55 0.08,-1.05 0.25,-1.5 0.16,-0.45 0.4,-0.84 0.7,-1.16 0.3,-0.32 0.66,-0.57 1.08,-0.75 0.42,-0.18 0.89,-0.27 1.4,-0.27 0.23,0 0.46,0.02 0.7,0.05 0.23,0.04 0.44,0.08 0.62,0.13 v -2.96 z m 0,4.07 c -0.18,-0.07 -0.37,-0.12 -0.57,-0.16 -0.2,-0.04 -0.42,-0.05 -0.66,-0.05 -0.36,0 -0.68,0.07 -0.94,0.2 -0.27,0.13 -0.48,0.31 -0.66,0.54 -0.17,0.23 -0.3,0.5 -0.38,0.82 -0.08,0.31 -0.13,0.66 -0.13,1.03 0,0.84 0.21,1.44 0.6,1.8 0.39,0.36 0.92,0.54 1.59,0.54 0.23,0 0.44,-0.01 0.64,-0.03 0.2,-0.02 0.37,-0.06 0.52,-0.1 v -4.59 z"
         id="path120" />
      <path
         class="cls-22"
         d="m 56.93,74.98 c -0.42,-0.16 -0.8,-0.34 -1.13,-0.53 -0.33,-0.19 -0.62,-0.42 -0.85,-0.68 -0.23,-0.27 -0.42,-0.58 -0.55,-0.95 -0.13,-0.37 -0.19,-0.81 -0.19,-1.33 0,-0.63 0.11,-1.18 0.32,-1.66 0.22,-0.48 0.52,-0.89 0.91,-1.21 0.39,-0.32 0.87,-0.57 1.42,-0.74 0.55,-0.17 1.18,-0.25 1.87,-0.25 0.63,0 1.22,0.05 1.77,0.17 0.55,0.11 1.12,0.27 1.73,0.48 -0.07,0.72 -0.27,1.42 -0.59,2.11 -0.18,-0.07 -0.37,-0.15 -0.56,-0.22 -0.19,-0.07 -0.39,-0.14 -0.61,-0.18 -0.22,-0.05 -0.46,-0.09 -0.73,-0.12 -0.27,-0.03 -0.58,-0.05 -0.92,-0.05 -0.21,0 -0.42,0.02 -0.64,0.06 -0.22,0.04 -0.41,0.1 -0.58,0.2 -0.17,0.1 -0.31,0.24 -0.43,0.43 -0.11,0.19 -0.17,0.44 -0.17,0.75 0,0.25 0.04,0.45 0.13,0.62 0.09,0.17 0.2,0.31 0.35,0.43 0.15,0.12 0.31,0.22 0.5,0.3 0.19,0.08 0.37,0.16 0.55,0.23 l 1.11,0.43 c 0.47,0.18 0.89,0.38 1.28,0.57 0.38,0.2 0.71,0.44 0.97,0.73 0.26,0.29 0.47,0.64 0.62,1.05 0.15,0.41 0.22,0.92 0.22,1.53 0,0.61 -0.11,1.2 -0.34,1.72 -0.23,0.52 -0.56,0.96 -0.99,1.33 -0.43,0.37 -0.96,0.66 -1.6,0.87 -0.64,0.21 -1.37,0.31 -2.19,0.31 -0.41,0 -0.77,-0.01 -1.09,-0.04 -0.32,-0.02 -0.63,-0.06 -0.92,-0.12 -0.29,-0.06 -0.58,-0.13 -0.86,-0.21 -0.28,-0.09 -0.58,-0.19 -0.89,-0.31 0.04,-0.36 0.1,-0.73 0.2,-1.12 0.1,-0.39 0.22,-0.78 0.35,-1.17 0.52,0.21 1,0.37 1.46,0.47 0.46,0.1 0.94,0.16 1.46,0.16 0.78,0 1.39,-0.14 1.83,-0.43 0.44,-0.29 0.67,-0.73 0.67,-1.32 0,-0.3 -0.05,-0.54 -0.16,-0.74 -0.1,-0.2 -0.24,-0.36 -0.41,-0.5 -0.17,-0.14 -0.35,-0.25 -0.56,-0.34 -0.21,-0.09 -0.43,-0.18 -0.65,-0.27 l -1.13,-0.43 z"
         id="path122"
         style="fill:url(#linearGradient344)" />
      <path
         class="cls-24"
         d="m 69.45,74.85 c 0,-0.3 -0.05,-0.54 -0.15,-0.72 C 69.2,73.95 69.07,73.8 68.89,73.7 68.72,73.6 68.5,73.52 68.25,73.49 68,73.46 67.72,73.43 67.41,73.43 c -0.67,0 -1.37,0.13 -2.13,0.39 -0.17,-0.32 -0.3,-0.62 -0.39,-0.91 -0.09,-0.28 -0.13,-0.62 -0.13,-1.02 0.54,-0.18 1.08,-0.32 1.63,-0.41 0.54,-0.09 1.05,-0.13 1.52,-0.13 1.28,0 2.28,0.31 3,0.92 0.72,0.62 1.08,1.6 1.08,2.96 v 5.55 c -0.43,0.14 -0.96,0.27 -1.57,0.39 -0.62,0.12 -1.31,0.18 -2.09,0.18 -0.63,0 -1.2,-0.05 -1.73,-0.17 -0.52,-0.11 -0.97,-0.3 -1.35,-0.55 -0.38,-0.26 -0.67,-0.59 -0.87,-1 -0.2,-0.41 -0.31,-0.91 -0.31,-1.5 0,-0.59 0.13,-1.09 0.38,-1.49 0.25,-0.4 0.58,-0.72 0.98,-0.96 0.4,-0.24 0.85,-0.41 1.34,-0.52 0.49,-0.11 0.99,-0.16 1.48,-0.16 0.36,0 0.75,0.02 1.18,0.05 v -0.22 z m 0,1.9 C 69.3,76.73 69.14,76.7 68.97,76.69 68.8,76.67 68.64,76.66 68.51,76.66 c -0.6,0 -1.08,0.11 -1.43,0.32 -0.35,0.22 -0.53,0.56 -0.53,1.04 0,0.32 0.07,0.57 0.2,0.74 0.14,0.17 0.3,0.3 0.49,0.38 0.19,0.08 0.39,0.13 0.61,0.15 0.22,0.02 0.4,0.03 0.56,0.03 0.19,0 0.37,-0.01 0.55,-0.05 0.18,-0.04 0.34,-0.06 0.48,-0.08 v -2.44 z"
         id="path124"
         style="fill:url(#Nieuwe_verloopstaal_1-2)" />
      <path
         class="cls-23"
         d="m 74.33,71.57 c 0.17,-0.04 0.35,-0.06 0.52,-0.08 0.17,-0.02 0.36,-0.03 0.57,-0.03 0.21,0 0.39,0 0.55,0.03 0.16,0.02 0.33,0.05 0.5,0.08 0.04,0.06 0.07,0.15 0.1,0.27 0.03,0.12 0.06,0.24 0.08,0.37 0.02,0.13 0.05,0.26 0.06,0.38 0.02,0.12 0.03,0.23 0.05,0.31 0.1,-0.18 0.23,-0.37 0.39,-0.55 0.16,-0.18 0.35,-0.35 0.57,-0.5 0.22,-0.15 0.47,-0.27 0.75,-0.36 0.28,-0.09 0.59,-0.14 0.93,-0.14 1.49,0 2.45,0.57 2.87,1.7 0.25,-0.45 0.59,-0.85 1.04,-1.19 0.45,-0.34 1.02,-0.51 1.71,-0.51 1.08,0 1.88,0.3 2.39,0.9 0.51,0.6 0.77,1.53 0.77,2.8 v 6.08 c -0.44,0.07 -0.88,0.11 -1.31,0.11 -0.43,0 -0.87,-0.04 -1.31,-0.11 v -5.4 c 0,-0.67 -0.08,-1.18 -0.25,-1.53 -0.17,-0.36 -0.5,-0.54 -1.01,-0.54 -0.21,0 -0.42,0.03 -0.62,0.09 -0.2,0.06 -0.39,0.18 -0.55,0.34 -0.17,0.17 -0.3,0.4 -0.41,0.7 -0.1,0.3 -0.16,0.69 -0.16,1.17 v 5.16 c -0.44,0.07 -0.88,0.11 -1.31,0.11 -0.43,0 -0.87,-0.04 -1.31,-0.11 v -5.4 c 0,-0.67 -0.08,-1.18 -0.25,-1.53 -0.17,-0.36 -0.5,-0.54 -1.01,-0.54 -0.21,0 -0.42,0.03 -0.63,0.09 -0.21,0.06 -0.4,0.18 -0.56,0.36 -0.17,0.18 -0.3,0.43 -0.4,0.75 -0.1,0.32 -0.15,0.74 -0.15,1.26 v 5.01 c -0.44,0.07 -0.88,0.11 -1.31,0.11 -0.43,0 -0.87,-0.04 -1.31,-0.11 v -9.56 z"
         id="path126"
         style="fill:url(#Nieuwe_verloopstaal_1-3)" />
      <path
         class="cls-28"
         d="m 92.67,77.16 c 0.05,0.74 0.31,1.28 0.78,1.61 0.47,0.33 1.08,0.5 1.85,0.5 0.42,0 0.85,-0.04 1.29,-0.12 0.44,-0.08 0.85,-0.19 1.25,-0.34 0.14,0.25 0.25,0.54 0.35,0.89 0.1,0.35 0.15,0.71 0.17,1.11 -0.96,0.37 -2.05,0.55 -3.25,0.55 -0.89,0 -1.65,-0.12 -2.28,-0.37 C 92.19,80.74 91.68,80.4 91.28,79.96 90.88,79.52 90.58,79 90.39,78.4 90.2,77.8 90.1,77.14 90.1,76.42 c 0,-0.72 0.1,-1.36 0.3,-1.98 0.2,-0.62 0.49,-1.15 0.88,-1.61 0.39,-0.46 0.87,-0.82 1.44,-1.08 0.57,-0.26 1.24,-0.4 2.01,-0.4 0.67,0 1.26,0.12 1.78,0.35 0.52,0.23 0.96,0.55 1.32,0.96 0.36,0.41 0.64,0.89 0.82,1.45 0.19,0.56 0.28,1.16 0.28,1.8 0,0.23 0,0.46 -0.03,0.69 -0.02,0.23 -0.04,0.41 -0.06,0.55 H 92.7 Z m 3.75,-1.83 c -0.02,-0.59 -0.19,-1.07 -0.49,-1.43 -0.3,-0.36 -0.72,-0.55 -1.27,-0.55 -0.62,0 -1.08,0.17 -1.4,0.52 -0.32,0.35 -0.51,0.83 -0.57,1.46 z"
         id="path128"
         style="fill:url(#Nieuwe_verloopstaal_1-4)" />
      <path
         class="cls-27"
         d="m 100.97,71.57 c 0.17,-0.04 0.35,-0.06 0.52,-0.08 0.17,-0.02 0.36,-0.03 0.57,-0.03 0.21,0 0.39,0 0.55,0.03 0.16,0.02 0.33,0.05 0.5,0.08 0.04,0.06 0.07,0.15 0.1,0.27 0.03,0.12 0.06,0.24 0.08,0.37 0.02,0.13 0.05,0.26 0.06,0.38 0.02,0.12 0.03,0.23 0.05,0.31 0.12,-0.18 0.27,-0.37 0.44,-0.55 0.17,-0.18 0.37,-0.35 0.6,-0.5 0.23,-0.15 0.48,-0.27 0.77,-0.36 0.28,-0.09 0.6,-0.14 0.94,-0.14 1.08,0 1.9,0.3 2.45,0.89 0.55,0.59 0.82,1.52 0.82,2.79 v 6.1 c -0.44,0.07 -0.88,0.11 -1.31,0.11 -0.43,0 -0.87,-0.04 -1.31,-0.11 v -5.4 c 0,-0.67 -0.1,-1.18 -0.3,-1.53 -0.2,-0.36 -0.56,-0.54 -1.06,-0.54 -0.21,0 -0.43,0.03 -0.65,0.09 -0.22,0.06 -0.42,0.18 -0.6,0.36 -0.18,0.18 -0.32,0.43 -0.43,0.75 -0.11,0.32 -0.17,0.74 -0.17,1.26 v 5.01 c -0.44,0.07 -0.88,0.11 -1.31,0.11 -0.43,0 -0.87,-0.04 -1.31,-0.11 z"
         id="path130"
         style="fill:url(#Nieuwe_verloopstaal_1-5)" />
      <path
         class="cls-25"
         d="m 116.15,73.57 h -1.2 l -0.09,-0.37 3.46,-4.42 h 0.43 v 2.79 h 2.24 c 0.04,0.18 0.06,0.35 0.07,0.5 0.01,0.15 0.02,0.3 0.02,0.46 0,0.17 0,0.34 -0.02,0.5 -0.01,0.16 -0.04,0.34 -0.07,0.54 h -2.24 v 3.75 c 0,0.38 0.03,0.69 0.09,0.92 0.06,0.23 0.15,0.42 0.27,0.55 0.12,0.13 0.26,0.23 0.43,0.28 0.17,0.05 0.38,0.07 0.61,0.07 0.18,0 0.37,-0.01 0.55,-0.05 0.18,-0.04 0.34,-0.06 0.47,-0.08 0.09,0.23 0.15,0.48 0.19,0.73 0.04,0.25 0.06,0.48 0.06,0.67 0,0.14 0,0.25 0,0.34 0,0.09 -0.02,0.18 -0.03,0.27 -0.57,0.14 -1.15,0.2 -1.76,0.2 -1.12,0 -1.98,-0.26 -2.57,-0.79 -0.59,-0.53 -0.89,-1.38 -0.89,-2.56 v -4.33 z"
         id="path132"
         style="fill:url(#Nieuwe_verloopstaal_1-6)" />
      <path
         class="cls-29"
         d="m 122.97,71.57 c 0.19,-0.04 0.36,-0.06 0.53,-0.08 0.17,-0.02 0.35,-0.03 0.55,-0.03 0.18,0 0.37,0.01 0.55,0.04 0.18,0.02 0.35,0.06 0.53,0.09 0.04,0.06 0.07,0.15 0.1,0.27 0.03,0.12 0.06,0.24 0.08,0.37 0.02,0.13 0.05,0.26 0.06,0.39 0.01,0.13 0.03,0.24 0.05,0.32 0.27,-0.38 0.6,-0.72 1,-1.03 0.4,-0.31 0.89,-0.45 1.48,-0.45 0.12,0 0.26,0 0.43,0.02 0.16,0.01 0.28,0.03 0.35,0.06 0.02,0.12 0.04,0.27 0.06,0.43 0.01,0.16 0.02,0.33 0.02,0.5 0,0.21 0,0.44 -0.03,0.68 -0.03,0.24 -0.05,0.48 -0.1,0.7 -0.14,-0.02 -0.29,-0.04 -0.45,-0.04 h -0.3 c -0.21,0 -0.44,0.02 -0.7,0.06 -0.26,0.04 -0.51,0.16 -0.74,0.34 -0.23,0.18 -0.43,0.46 -0.58,0.83 -0.15,0.37 -0.23,0.89 -0.23,1.55 v 4.55 c -0.22,0.04 -0.44,0.06 -0.67,0.07 -0.22,0.01 -0.44,0.02 -0.65,0.02 -0.21,0 -0.42,0 -0.64,-0.02 -0.22,-0.01 -0.44,-0.04 -0.67,-0.07 v -9.58 z"
         id="path134"
         style="fill:url(#Nieuwe_verloopstaal_1-7)" />
      <path
         class="cls-26"
         d="m 134.99,74.85 c 0,-0.3 -0.05,-0.54 -0.15,-0.72 -0.1,-0.18 -0.23,-0.33 -0.41,-0.43 -0.17,-0.1 -0.39,-0.18 -0.64,-0.21 -0.25,-0.03 -0.53,-0.06 -0.84,-0.06 -0.67,0 -1.37,0.13 -2.13,0.39 -0.17,-0.32 -0.3,-0.62 -0.39,-0.91 -0.09,-0.28 -0.13,-0.62 -0.13,-1.02 0.54,-0.18 1.08,-0.32 1.63,-0.41 0.54,-0.09 1.05,-0.13 1.52,-0.13 1.28,0 2.28,0.31 3,0.92 0.72,0.62 1.08,1.6 1.08,2.96 v 5.55 c -0.43,0.14 -0.96,0.27 -1.57,0.39 -0.62,0.12 -1.31,0.18 -2.09,0.18 -0.63,0 -1.2,-0.05 -1.73,-0.17 -0.52,-0.11 -0.97,-0.3 -1.35,-0.55 -0.38,-0.26 -0.67,-0.59 -0.87,-1 -0.2,-0.41 -0.31,-0.91 -0.31,-1.5 0,-0.59 0.13,-1.09 0.38,-1.49 0.25,-0.4 0.58,-0.72 0.98,-0.96 0.4,-0.24 0.85,-0.41 1.34,-0.52 0.49,-0.11 0.99,-0.16 1.48,-0.16 0.36,0 0.75,0.02 1.18,0.05 v -0.22 z m 0,1.9 c -0.15,-0.02 -0.31,-0.05 -0.48,-0.06 -0.17,-0.02 -0.33,-0.03 -0.46,-0.03 -0.6,0 -1.08,0.11 -1.43,0.32 -0.35,0.22 -0.53,0.56 -0.53,1.04 0,0.32 0.07,0.57 0.2,0.74 0.14,0.17 0.3,0.3 0.49,0.38 0.19,0.08 0.39,0.13 0.61,0.15 0.22,0.02 0.4,0.03 0.56,0.03 0.19,0 0.37,-0.01 0.55,-0.05 0.18,-0.04 0.34,-0.06 0.48,-0.08 v -2.44 z"
         id="path136"
         style="fill:url(#Nieuwe_verloopstaal_1-8)" />
      <path
         class="cls-30"
         d="m 139.87,71.57 c 0.17,-0.04 0.35,-0.06 0.52,-0.08 0.17,-0.02 0.36,-0.03 0.57,-0.03 0.21,0 0.39,0 0.55,0.03 0.16,0.02 0.33,0.05 0.5,0.08 0.04,0.06 0.07,0.15 0.1,0.27 0.03,0.12 0.06,0.24 0.08,0.37 0.02,0.13 0.05,0.26 0.06,0.38 0.02,0.12 0.03,0.23 0.05,0.31 0.12,-0.18 0.27,-0.37 0.44,-0.55 0.17,-0.18 0.37,-0.35 0.6,-0.5 0.23,-0.15 0.48,-0.27 0.77,-0.36 0.28,-0.09 0.6,-0.14 0.94,-0.14 1.08,0 1.9,0.3 2.45,0.89 0.55,0.59 0.82,1.52 0.82,2.79 v 6.1 c -0.44,0.07 -0.88,0.11 -1.31,0.11 -0.43,0 -0.87,-0.04 -1.31,-0.11 v -5.4 c 0,-0.67 -0.1,-1.18 -0.3,-1.53 -0.2,-0.36 -0.56,-0.54 -1.06,-0.54 -0.21,0 -0.43,0.03 -0.65,0.09 -0.22,0.06 -0.42,0.18 -0.6,0.36 -0.18,0.18 -0.32,0.43 -0.43,0.75 -0.11,0.32 -0.17,0.74 -0.17,1.26 v 5.01 c -0.44,0.07 -0.88,0.11 -1.31,0.11 -0.43,0 -0.87,-0.04 -1.31,-0.11 z"
         id="path138"
         style="fill:url(#Nieuwe_verloopstaal_1-9)" />
      <path
         class="cls-8"
         d="m 152.57,76.97 c -0.69,-0.2 -1.23,-0.49 -1.62,-0.88 -0.39,-0.39 -0.58,-0.97 -0.58,-1.75 0,-0.94 0.34,-1.67 1.01,-2.2 0.67,-0.53 1.59,-0.8 2.75,-0.8 0.48,0 0.96,0.04 1.42,0.13 0.47,0.09 0.94,0.22 1.42,0.39 -0.02,0.32 -0.09,0.65 -0.18,1 -0.1,0.35 -0.22,0.65 -0.35,0.91 -0.3,-0.12 -0.62,-0.23 -0.98,-0.32 -0.36,-0.09 -0.73,-0.14 -1.13,-0.14 -0.42,0 -0.75,0.06 -0.98,0.19 -0.23,0.13 -0.35,0.34 -0.35,0.62 0,0.28 0.08,0.46 0.25,0.57 0.17,0.11 0.4,0.22 0.71,0.31 l 1.05,0.31 c 0.34,0.1 0.66,0.22 0.93,0.36 0.28,0.14 0.51,0.32 0.71,0.53 0.2,0.21 0.35,0.47 0.46,0.78 0.11,0.31 0.17,0.68 0.17,1.13 0,0.45 -0.1,0.88 -0.29,1.28 -0.19,0.4 -0.47,0.74 -0.83,1.03 -0.36,0.29 -0.8,0.52 -1.32,0.68 -0.52,0.17 -1.1,0.25 -1.76,0.25 -0.3,0 -0.57,0 -0.81,-0.03 -0.25,-0.02 -0.48,-0.05 -0.71,-0.09 -0.23,-0.04 -0.45,-0.1 -0.67,-0.16 -0.22,-0.06 -0.46,-0.14 -0.72,-0.24 0.02,-0.33 0.08,-0.67 0.18,-1.01 0.09,-0.34 0.21,-0.67 0.36,-0.99 0.41,0.16 0.79,0.28 1.16,0.36 0.36,0.08 0.74,0.12 1.14,0.12 0.17,0 0.36,-0.01 0.56,-0.05 0.2,-0.03 0.39,-0.09 0.56,-0.17 0.17,-0.08 0.32,-0.18 0.43,-0.31 0.11,-0.13 0.18,-0.3 0.18,-0.51 0,-0.3 -0.09,-0.51 -0.27,-0.64 -0.18,-0.13 -0.43,-0.24 -0.75,-0.34 l -1.15,-0.33 z"
         id="path140"
         style="fill:url(#Nieuwe_verloopstaal_1-10)" />
      <path
         class="cls-14"
         d="m 159.75,73.57 h -1.24 c -0.04,-0.16 -0.06,-0.33 -0.08,-0.51 -0.02,-0.18 -0.03,-0.35 -0.03,-0.51 0,-0.33 0.04,-0.66 0.11,-0.98 h 3.81 v 9.56 c -0.44,0.07 -0.88,0.11 -1.29,0.11 -0.41,0 -0.83,-0.04 -1.28,-0.11 z m -0.39,-3.6 c -0.07,-0.42 -0.11,-0.83 -0.11,-1.24 0,-0.41 0.04,-0.81 0.11,-1.24 0.21,-0.04 0.43,-0.06 0.67,-0.08 0.24,-0.02 0.46,-0.03 0.66,-0.03 0.21,0 0.44,0 0.68,0.03 0.25,0.02 0.47,0.05 0.68,0.08 0.04,0.21 0.06,0.42 0.07,0.62 0.01,0.2 0.02,0.41 0.02,0.62 0,0.2 0,0.4 -0.02,0.61 -0.01,0.21 -0.04,0.42 -0.07,0.63 -0.21,0.04 -0.43,0.06 -0.67,0.07 -0.24,0.01 -0.47,0.02 -0.67,0.02 -0.2,0 -0.42,0 -0.67,-0.02 -0.25,-0.01 -0.47,-0.04 -0.68,-0.07 z"
         id="path142"
         style="fill:url(#Nieuwe_verloopstaal_1-11)" />
      <path
         class="cls-13"
         d="m 165.16,73.57 h -1.2 l -0.09,-0.37 3.46,-4.42 h 0.43 v 2.79 H 170 c 0.04,0.18 0.06,0.35 0.07,0.5 0.01,0.15 0.02,0.3 0.02,0.46 0,0.17 0,0.34 -0.02,0.5 -0.01,0.16 -0.04,0.34 -0.07,0.54 h -2.24 v 3.75 c 0,0.38 0.03,0.69 0.09,0.92 0.06,0.23 0.15,0.42 0.27,0.55 0.12,0.13 0.26,0.23 0.43,0.28 0.17,0.05 0.38,0.07 0.61,0.07 0.18,0 0.37,-0.01 0.55,-0.05 0.18,-0.04 0.34,-0.06 0.47,-0.08 0.09,0.23 0.15,0.48 0.18,0.73 0.04,0.25 0.06,0.48 0.06,0.67 0,0.14 0,0.25 0,0.34 0,0.09 -0.02,0.18 -0.03,0.27 -0.57,0.14 -1.15,0.2 -1.76,0.2 -1.12,0 -1.98,-0.26 -2.57,-0.79 -0.59,-0.53 -0.89,-1.38 -0.89,-2.56 v -4.33 z"
         id="path144"
         style="fill:url(#Nieuwe_verloopstaal_1-12)" />
      <path
         class="cls-18"
         d="m 172.5,73.57 h -1.24 c -0.04,-0.16 -0.06,-0.33 -0.08,-0.51 -0.02,-0.18 -0.03,-0.35 -0.03,-0.51 0,-0.33 0.04,-0.66 0.11,-0.98 h 3.81 v 9.56 c -0.44,0.07 -0.88,0.11 -1.3,0.11 -0.42,0 -0.83,-0.04 -1.28,-0.11 v -7.56 z m -0.39,-3.6 C 172.04,69.55 172,69.14 172,68.73 c 0,-0.41 0.04,-0.81 0.11,-1.24 0.21,-0.04 0.43,-0.06 0.67,-0.08 0.24,-0.02 0.46,-0.03 0.66,-0.03 0.21,0 0.44,0 0.68,0.03 0.25,0.02 0.47,0.05 0.68,0.08 0.04,0.21 0.06,0.42 0.07,0.62 0.01,0.2 0.02,0.41 0.02,0.62 0,0.2 0,0.4 -0.02,0.61 -0.02,0.21 -0.04,0.42 -0.07,0.63 -0.21,0.04 -0.43,0.06 -0.67,0.07 -0.24,0.01 -0.47,0.02 -0.68,0.02 -0.2,0 -0.42,0 -0.67,-0.02 -0.25,-0.01 -0.47,-0.04 -0.68,-0.07 z"
         id="path146"
         style="fill:url(#Nieuwe_verloopstaal_1-13)" />
      <path
         class="cls-19"
         d="m 179.75,77.16 c 0.05,0.74 0.31,1.28 0.78,1.61 0.47,0.33 1.08,0.5 1.85,0.5 0.42,0 0.85,-0.04 1.29,-0.12 0.44,-0.08 0.85,-0.19 1.25,-0.34 0.14,0.25 0.25,0.54 0.35,0.89 0.1,0.35 0.15,0.71 0.17,1.11 -0.96,0.37 -2.05,0.55 -3.25,0.55 -0.89,0 -1.65,-0.12 -2.28,-0.37 -0.63,-0.25 -1.15,-0.59 -1.55,-1.03 -0.4,-0.44 -0.7,-0.96 -0.89,-1.56 -0.19,-0.6 -0.29,-1.26 -0.29,-1.98 0,-0.72 0.1,-1.36 0.3,-1.98 0.2,-0.62 0.49,-1.15 0.88,-1.61 0.39,-0.46 0.87,-0.82 1.44,-1.08 0.57,-0.26 1.24,-0.4 2.01,-0.4 0.67,0 1.26,0.12 1.78,0.35 0.52,0.23 0.96,0.55 1.32,0.96 0.36,0.41 0.64,0.89 0.82,1.45 0.18,0.56 0.28,1.16 0.28,1.8 0,0.23 0,0.46 -0.03,0.69 -0.02,0.23 -0.04,0.41 -0.06,0.55 h -6.14 z m 3.75,-1.83 c -0.02,-0.59 -0.19,-1.07 -0.49,-1.43 -0.3,-0.36 -0.72,-0.55 -1.27,-0.55 -0.62,0 -1.08,0.17 -1.4,0.52 -0.32,0.35 -0.51,0.83 -0.57,1.46 h 3.74 z"
         id="path148"
         style="fill:url(#Nieuwe_verloopstaal_1-14)" />
      <path
         class="cls-17"
         d="m 189.9,76.97 c -0.69,-0.2 -1.23,-0.49 -1.62,-0.88 -0.39,-0.39 -0.58,-0.97 -0.58,-1.75 0,-0.94 0.34,-1.67 1.01,-2.2 0.67,-0.53 1.59,-0.8 2.75,-0.8 0.48,0 0.95,0.04 1.42,0.13 0.47,0.09 0.94,0.22 1.42,0.39 -0.02,0.32 -0.09,0.65 -0.18,1 -0.09,0.35 -0.22,0.65 -0.35,0.91 -0.3,-0.12 -0.62,-0.23 -0.98,-0.32 -0.36,-0.09 -0.73,-0.14 -1.13,-0.14 -0.42,0 -0.75,0.06 -0.98,0.19 -0.23,0.13 -0.35,0.34 -0.35,0.62 0,0.28 0.08,0.46 0.25,0.57 0.17,0.11 0.4,0.22 0.71,0.31 l 1.05,0.31 c 0.35,0.1 0.66,0.22 0.93,0.36 0.27,0.14 0.51,0.32 0.71,0.53 0.2,0.21 0.35,0.47 0.46,0.78 0.11,0.31 0.17,0.68 0.17,1.13 0,0.45 -0.1,0.88 -0.29,1.28 -0.19,0.4 -0.47,0.74 -0.83,1.03 -0.36,0.29 -0.8,0.52 -1.32,0.68 -0.52,0.16 -1.1,0.25 -1.76,0.25 -0.3,0 -0.57,0 -0.81,-0.03 -0.25,-0.02 -0.48,-0.05 -0.71,-0.09 -0.23,-0.04 -0.45,-0.1 -0.67,-0.16 -0.22,-0.06 -0.46,-0.14 -0.72,-0.24 0.02,-0.33 0.08,-0.67 0.18,-1.01 0.09,-0.34 0.21,-0.67 0.36,-0.99 0.41,0.16 0.79,0.28 1.16,0.36 0.36,0.08 0.74,0.12 1.14,0.12 0.17,0 0.36,-0.01 0.56,-0.05 0.2,-0.03 0.39,-0.09 0.56,-0.17 0.17,-0.08 0.32,-0.18 0.43,-0.31 0.12,-0.13 0.18,-0.3 0.18,-0.51 0,-0.3 -0.09,-0.51 -0.27,-0.64 -0.18,-0.13 -0.43,-0.24 -0.75,-0.34 l -1.15,-0.33 z"
         id="path150"
         style="fill:url(#Nieuwe_verloopstaal_1-15)" />
      <path
         class="cls-16"
         d="m 199.42,71.59 c 0.3,-0.06 0.57,-0.1 0.82,-0.11 0.25,-0.01 0.47,-0.02 0.66,-0.02 0.25,0 0.49,0 0.74,0.02 0.25,0.01 0.47,0.04 0.68,0.09 l 2.09,7.12 2.05,-7.12 c 0.21,-0.04 0.43,-0.06 0.67,-0.08 0.23,-0.02 0.47,-0.03 0.7,-0.03 0.18,0 0.4,0 0.64,0.02 0.24,0.01 0.51,0.05 0.82,0.11 l -3.62,9.54 c -0.23,0.04 -0.48,0.06 -0.74,0.07 -0.26,0.01 -0.47,0.02 -0.65,0.02 -0.18,0 -0.4,0 -0.63,-0.02 -0.23,-0.01 -0.46,-0.04 -0.67,-0.09 l -3.57,-9.52 z"
         id="path152"
         style="fill:url(#Nieuwe_verloopstaal_1-16)" />
      <path
         class="cls-11"
         d="m 212.4,77.16 c 0.05,0.74 0.31,1.28 0.78,1.61 0.47,0.33 1.08,0.5 1.85,0.5 0.42,0 0.85,-0.04 1.29,-0.12 0.44,-0.08 0.85,-0.19 1.25,-0.34 0.14,0.25 0.25,0.54 0.35,0.89 0.1,0.35 0.15,0.71 0.17,1.11 -0.96,0.37 -2.05,0.55 -3.25,0.55 -0.89,0 -1.65,-0.12 -2.28,-0.37 -0.63,-0.25 -1.15,-0.59 -1.55,-1.03 -0.4,-0.44 -0.7,-0.96 -0.89,-1.56 -0.19,-0.6 -0.29,-1.26 -0.29,-1.98 0,-0.72 0.1,-1.36 0.3,-1.98 0.2,-0.62 0.49,-1.15 0.88,-1.61 0.39,-0.46 0.87,-0.82 1.44,-1.08 0.57,-0.26 1.24,-0.4 2.01,-0.4 0.67,0 1.26,0.12 1.78,0.35 0.52,0.23 0.96,0.55 1.32,0.96 0.36,0.41 0.64,0.89 0.82,1.45 0.18,0.56 0.28,1.16 0.28,1.8 0,0.23 0,0.46 -0.03,0.69 -0.02,0.23 -0.04,0.41 -0.06,0.55 h -6.14 z m 3.75,-1.83 c -0.02,-0.59 -0.19,-1.07 -0.49,-1.43 -0.3,-0.36 -0.72,-0.55 -1.27,-0.55 -0.62,0 -1.08,0.17 -1.4,0.52 -0.32,0.35 -0.51,0.83 -0.57,1.46 h 3.74 z"
         id="path154"
         style="fill:url(#Nieuwe_verloopstaal_1-17)" />
      <path
         class="cls-12"
         d="m 220.7,71.57 c 0.18,-0.04 0.36,-0.06 0.53,-0.08 0.17,-0.02 0.35,-0.03 0.55,-0.03 0.18,0 0.37,0.01 0.54,0.04 0.17,0.03 0.35,0.06 0.53,0.09 0.04,0.06 0.07,0.15 0.1,0.27 0.03,0.12 0.06,0.24 0.08,0.37 0.02,0.13 0.05,0.26 0.06,0.39 0.02,0.13 0.03,0.24 0.05,0.32 0.27,-0.38 0.6,-0.72 1,-1.03 0.39,-0.3 0.89,-0.45 1.48,-0.45 0.12,0 0.27,0 0.43,0.02 0.16,0.01 0.28,0.03 0.35,0.06 0.02,0.12 0.04,0.27 0.06,0.43 0.01,0.16 0.02,0.33 0.02,0.5 0,0.21 0,0.44 -0.03,0.68 -0.02,0.25 -0.05,0.48 -0.1,0.7 -0.14,-0.02 -0.29,-0.04 -0.45,-0.04 h -0.31 c -0.21,0 -0.44,0.02 -0.7,0.06 -0.26,0.04 -0.51,0.16 -0.74,0.34 -0.23,0.18 -0.43,0.46 -0.58,0.83 -0.15,0.37 -0.23,0.89 -0.23,1.55 v 4.55 c -0.22,0.04 -0.44,0.06 -0.67,0.07 -0.22,0.01 -0.44,0.02 -0.65,0.02 -0.21,0 -0.42,0 -0.64,-0.02 -0.22,-0.01 -0.44,-0.04 -0.67,-0.07 v -9.58 z"
         id="path156"
         style="fill:url(#Nieuwe_verloopstaal_1-18)" />
      <path
         class="cls-15"
         d="m 229.78,76.97 c -0.69,-0.2 -1.23,-0.49 -1.62,-0.88 -0.39,-0.39 -0.58,-0.97 -0.58,-1.75 0,-0.94 0.34,-1.67 1.01,-2.2 0.67,-0.53 1.59,-0.8 2.75,-0.8 0.48,0 0.95,0.04 1.42,0.13 0.47,0.09 0.94,0.22 1.42,0.39 -0.02,0.32 -0.09,0.65 -0.18,1 -0.09,0.35 -0.22,0.65 -0.35,0.91 -0.3,-0.12 -0.62,-0.23 -0.98,-0.32 -0.36,-0.09 -0.73,-0.14 -1.13,-0.14 -0.42,0 -0.75,0.06 -0.98,0.19 -0.23,0.13 -0.35,0.34 -0.35,0.62 0,0.28 0.08,0.46 0.25,0.57 0.17,0.11 0.4,0.22 0.71,0.31 l 1.05,0.31 c 0.35,0.1 0.66,0.22 0.93,0.36 0.27,0.14 0.51,0.32 0.71,0.53 0.2,0.21 0.35,0.47 0.46,0.78 0.11,0.31 0.17,0.68 0.17,1.13 0,0.45 -0.1,0.88 -0.29,1.28 -0.19,0.4 -0.47,0.74 -0.83,1.03 -0.36,0.29 -0.8,0.52 -1.32,0.68 -0.52,0.16 -1.1,0.25 -1.76,0.25 -0.3,0 -0.57,0 -0.81,-0.03 -0.25,-0.02 -0.48,-0.05 -0.71,-0.09 -0.23,-0.04 -0.45,-0.1 -0.67,-0.16 -0.22,-0.06 -0.46,-0.14 -0.72,-0.24 0.02,-0.33 0.08,-0.67 0.18,-1.01 0.09,-0.34 0.21,-0.67 0.36,-0.99 0.41,0.16 0.79,0.28 1.16,0.36 0.36,0.08 0.74,0.12 1.14,0.12 0.17,0 0.36,-0.01 0.56,-0.05 0.2,-0.03 0.39,-0.09 0.56,-0.17 0.17,-0.08 0.32,-0.18 0.43,-0.31 0.12,-0.13 0.18,-0.3 0.18,-0.51 0,-0.3 -0.09,-0.51 -0.27,-0.64 -0.18,-0.13 -0.43,-0.24 -0.75,-0.34 l -1.15,-0.33 z"
         id="path158"
         style="fill:url(#Nieuwe_verloopstaal_1-19)" />
      <path
         class="cls-4"
         d="m 236.44,71.57 c 0.17,-0.04 0.35,-0.06 0.52,-0.08 0.17,-0.02 0.36,-0.03 0.57,-0.03 0.21,0 0.4,0 0.55,0.03 0.16,0.02 0.33,0.05 0.5,0.08 0.04,0.06 0.07,0.15 0.1,0.27 0.03,0.12 0.06,0.24 0.08,0.37 0.02,0.13 0.05,0.26 0.06,0.38 0.02,0.12 0.03,0.23 0.05,0.31 0.12,-0.18 0.27,-0.37 0.44,-0.55 0.17,-0.18 0.37,-0.35 0.6,-0.5 0.23,-0.15 0.48,-0.27 0.77,-0.36 0.28,-0.09 0.6,-0.14 0.94,-0.14 1.08,0 1.9,0.3 2.45,0.89 0.55,0.59 0.82,1.52 0.82,2.79 v 6.1 c -0.44,0.07 -0.88,0.11 -1.31,0.11 -0.43,0 -0.87,-0.04 -1.31,-0.11 v -5.4 c 0,-0.67 -0.1,-1.18 -0.31,-1.53 -0.2,-0.36 -0.56,-0.54 -1.06,-0.54 -0.21,0 -0.43,0.03 -0.65,0.09 -0.22,0.06 -0.42,0.18 -0.6,0.36 -0.18,0.18 -0.32,0.43 -0.44,0.75 -0.11,0.32 -0.17,0.74 -0.17,1.26 v 5.01 c -0.44,0.07 -0.88,0.11 -1.31,0.11 -0.43,0 -0.87,-0.04 -1.31,-0.11 v -9.56 z"
         id="path160"
         style="fill:url(#Nieuwe_verloopstaal_1-20)" />
      <path
         class="cls-5"
         d="m 249.38,77.16 c 0.05,0.74 0.31,1.28 0.78,1.61 0.47,0.33 1.08,0.5 1.85,0.5 0.42,0 0.85,-0.04 1.29,-0.12 0.44,-0.08 0.85,-0.19 1.25,-0.34 0.14,0.25 0.25,0.54 0.35,0.89 0.1,0.35 0.15,0.71 0.17,1.11 -0.96,0.37 -2.05,0.55 -3.25,0.55 -0.89,0 -1.65,-0.12 -2.28,-0.37 -0.63,-0.25 -1.15,-0.59 -1.55,-1.03 -0.4,-0.44 -0.7,-0.96 -0.89,-1.56 -0.19,-0.6 -0.29,-1.26 -0.29,-1.98 0,-0.72 0.1,-1.36 0.3,-1.98 0.2,-0.62 0.49,-1.15 0.88,-1.61 0.39,-0.46 0.87,-0.82 1.44,-1.08 0.57,-0.26 1.24,-0.4 2.01,-0.4 0.67,0 1.26,0.12 1.78,0.35 0.52,0.23 0.96,0.55 1.32,0.96 0.36,0.41 0.64,0.89 0.82,1.45 0.18,0.56 0.28,1.16 0.28,1.8 0,0.23 0,0.46 -0.03,0.69 -0.02,0.23 -0.04,0.41 -0.06,0.55 h -6.14 z m 3.75,-1.83 c -0.02,-0.59 -0.19,-1.07 -0.49,-1.43 -0.3,-0.36 -0.72,-0.55 -1.27,-0.55 -0.62,0 -1.08,0.17 -1.4,0.52 -0.32,0.35 -0.51,0.83 -0.57,1.46 h 3.74 z"
         id="path162"
         style="fill:url(#Nieuwe_verloopstaal_1-21)" />
      <path
         class="cls-9"
         d="m 257.6,67.62 c 0.44,-0.07 0.88,-0.11 1.31,-0.11 0.43,0 0.85,0.04 1.29,0.11 v 9.71 c 0,0.38 0.02,0.69 0.06,0.92 0.04,0.23 0.11,0.42 0.2,0.55 0.09,0.13 0.21,0.22 0.36,0.27 0.15,0.05 0.33,0.07 0.55,0.07 0.1,0 0.21,0 0.32,-0.02 0.12,-0.01 0.23,-0.03 0.34,-0.05 0.13,0.5 0.2,1 0.2,1.48 v 0.27 c 0,0.08 -0.01,0.17 -0.04,0.27 -0.2,0.06 -0.43,0.1 -0.71,0.13 -0.28,0.03 -0.53,0.04 -0.77,0.04 -0.95,0 -1.71,-0.26 -2.28,-0.79 -0.57,-0.52 -0.86,-1.38 -0.86,-2.56 V 67.63 Z"
         id="path164"
         style="fill:url(#Nieuwe_verloopstaal_1-22)" />
      <path
         class="cls-10"
         d="m 263.6,67.62 c 0.44,-0.07 0.88,-0.11 1.31,-0.11 0.43,0 0.85,0.04 1.29,0.11 v 9.71 c 0,0.38 0.02,0.69 0.06,0.92 0.04,0.23 0.11,0.42 0.2,0.55 0.09,0.13 0.21,0.22 0.36,0.27 0.15,0.05 0.33,0.07 0.55,0.07 0.1,0 0.21,0 0.32,-0.02 0.12,-0.01 0.23,-0.03 0.34,-0.05 0.13,0.5 0.2,1 0.2,1.48 v 0.27 c 0,0.08 -0.01,0.17 -0.04,0.27 -0.2,0.06 -0.43,0.1 -0.71,0.13 -0.28,0.03 -0.53,0.04 -0.77,0.04 -0.95,0 -1.71,-0.26 -2.28,-0.79 -0.57,-0.52 -0.86,-1.38 -0.86,-2.56 V 67.63 Z"
         id="path166"
         style="fill:url(#Nieuwe_verloopstaal_1-23)" />
      <path
         class="cls-6"
         d="m 271.75,77.16 c 0.05,0.74 0.31,1.28 0.78,1.61 0.47,0.33 1.08,0.5 1.85,0.5 0.42,0 0.85,-0.04 1.29,-0.12 0.44,-0.08 0.85,-0.19 1.25,-0.34 0.14,0.25 0.25,0.54 0.35,0.89 0.1,0.35 0.15,0.71 0.17,1.11 -0.96,0.37 -2.05,0.55 -3.25,0.55 -0.89,0 -1.65,-0.12 -2.28,-0.37 -0.63,-0.25 -1.15,-0.59 -1.55,-1.03 -0.4,-0.44 -0.7,-0.96 -0.89,-1.56 -0.19,-0.6 -0.29,-1.26 -0.29,-1.98 0,-0.72 0.1,-1.36 0.3,-1.98 0.2,-0.62 0.49,-1.15 0.88,-1.61 0.39,-0.46 0.87,-0.82 1.44,-1.08 0.57,-0.26 1.24,-0.4 2.01,-0.4 0.67,0 1.26,0.12 1.78,0.35 0.52,0.23 0.96,0.55 1.32,0.96 0.36,0.41 0.64,0.89 0.82,1.45 0.18,0.56 0.28,1.16 0.28,1.8 0,0.23 0,0.46 -0.03,0.69 -0.02,0.23 -0.04,0.41 -0.06,0.55 h -6.14 z m 3.75,-1.83 c -0.02,-0.59 -0.19,-1.07 -0.49,-1.43 -0.3,-0.36 -0.72,-0.55 -1.27,-0.55 -0.62,0 -1.08,0.17 -1.4,0.52 -0.32,0.35 -0.51,0.83 -0.57,1.46 h 3.74 z"
         id="path168"
         style="fill:url(#Nieuwe_verloopstaal_1-24)" />
      <path
         class="cls-7"
         d="m 280.05,71.57 c 0.17,-0.04 0.35,-0.06 0.52,-0.08 0.17,-0.02 0.36,-0.03 0.57,-0.03 0.21,0 0.4,0 0.55,0.03 0.16,0.02 0.33,0.05 0.5,0.08 0.04,0.06 0.07,0.15 0.1,0.27 0.03,0.12 0.06,0.24 0.08,0.37 0.02,0.13 0.05,0.26 0.06,0.38 0.02,0.12 0.03,0.23 0.05,0.31 0.12,-0.18 0.27,-0.37 0.44,-0.55 0.17,-0.18 0.37,-0.35 0.6,-0.5 0.23,-0.15 0.48,-0.27 0.77,-0.36 0.28,-0.09 0.6,-0.14 0.94,-0.14 1.08,0 1.9,0.3 2.45,0.89 0.55,0.59 0.82,1.52 0.82,2.79 v 6.1 c -0.44,0.07 -0.88,0.11 -1.31,0.11 -0.43,0 -0.87,-0.04 -1.31,-0.11 v -5.4 c 0,-0.67 -0.1,-1.18 -0.31,-1.53 -0.2,-0.36 -0.56,-0.54 -1.06,-0.54 -0.21,0 -0.43,0.03 -0.65,0.09 -0.22,0.06 -0.42,0.18 -0.6,0.36 -0.18,0.18 -0.32,0.43 -0.44,0.75 -0.11,0.32 -0.17,0.74 -0.17,1.26 v 5.01 c -0.44,0.07 -0.88,0.11 -1.31,0.11 -0.43,0 -0.87,-0.04 -1.31,-0.11 v -9.56 z"
         id="path170"
         style="fill:url(#Nieuwe_verloopstaal_1-25)" />
      <path
         class="cls-20"
         d="m 138.48,31.86 c 0.11,-0.02 0.23,-0.03 0.36,-0.04 0.12,0 0.25,-0.01 0.37,-0.01 0.12,0 0.25,0 0.37,0.01 0.12,0 0.24,0.02 0.36,0.04 v 10.27 c -0.11,0.02 -0.23,0.03 -0.36,0.04 -0.12,0 -0.25,0.01 -0.37,0.01 -0.13,0 -0.26,0 -0.39,-0.01 -0.12,0 -0.24,-0.02 -0.34,-0.04 z m 1.89,5.06 3.3,-5.06 c 0.13,-0.02 0.26,-0.03 0.39,-0.04 0.13,0 0.25,-0.01 0.35,-0.01 0.12,0 0.26,0 0.4,0.01 0.14,0 0.29,0.02 0.44,0.04 l -3.26,4.93 3.67,5.34 c -0.15,0.02 -0.3,0.03 -0.45,0.04 -0.15,0 -0.29,0.01 -0.42,0.01 -0.11,0 -0.24,0 -0.37,-0.01 -0.13,0 -0.27,-0.02 -0.41,-0.04 l -3.64,-5.22 z"
         id="path172" />
      <path
         class="cls-20"
         d="m 146.92,31.66 c 0.1,-0.02 0.22,-0.03 0.35,-0.04 0.13,0 0.25,-0.01 0.35,-0.01 0.1,0 0.22,0 0.35,0.01 0.13,0 0.25,0.02 0.35,0.04 v 8.26 c 0,0.27 0.02,0.48 0.07,0.63 0.05,0.15 0.11,0.27 0.19,0.35 0.08,0.08 0.18,0.13 0.29,0.16 0.11,0.02 0.23,0.04 0.35,0.04 0.09,0 0.18,0 0.29,-0.01 0.11,0 0.2,-0.02 0.28,-0.04 0.09,0.33 0.13,0.7 0.13,1.09 -0.13,0.05 -0.29,0.08 -0.49,0.09 -0.19,0.01 -0.37,0.02 -0.53,0.02 -0.28,0 -0.53,-0.03 -0.77,-0.1 -0.24,-0.07 -0.45,-0.18 -0.63,-0.33 -0.18,-0.15 -0.32,-0.36 -0.43,-0.61 -0.1,-0.26 -0.16,-0.58 -0.16,-0.96 v -8.57 z"
         id="path174" />
      <path
         class="cls-20"
         d="m 151.64,35.92 h -0.93 c -0.02,-0.08 -0.03,-0.16 -0.04,-0.26 0,-0.1 -0.01,-0.2 -0.01,-0.29 0,-0.09 0,-0.19 0.01,-0.29 0,-0.1 0.02,-0.19 0.04,-0.26 h 2.32 v 7.33 c -0.11,0.02 -0.22,0.03 -0.35,0.04 -0.13,0 -0.25,0.01 -0.35,0.01 -0.09,0 -0.21,0 -0.34,-0.01 -0.13,0 -0.25,-0.02 -0.35,-0.04 v -6.22 z m -0.31,-2.73 c -0.02,-0.11 -0.03,-0.24 -0.04,-0.37 -0.01,-0.13 0,-0.25 0,-0.36 0,-0.11 0,-0.22 0,-0.36 0,-0.13 0.02,-0.25 0.04,-0.36 0.12,-0.02 0.26,-0.03 0.4,-0.04 0.14,0 0.27,-0.01 0.37,-0.01 0.1,0 0.23,0 0.37,0.01 0.14,0 0.27,0.02 0.39,0.04 0.02,0.1 0.03,0.22 0.04,0.36 0,0.13 0,0.25 0,0.36 0,0.11 0,0.22 0,0.36 0,0.13 -0.02,0.26 -0.04,0.37 -0.11,0.02 -0.24,0.03 -0.38,0.04 -0.14,0 -0.26,0.01 -0.36,0.01 -0.11,0 -0.24,0 -0.39,-0.01 -0.14,0 -0.28,-0.02 -0.4,-0.04 z"
         id="path176" />
      <path
         class="cls-20"
         d="m 155.33,34.81 c 0.1,-0.02 0.21,-0.03 0.31,-0.04 0.1,0 0.2,-0.01 0.31,-0.01 0.11,0 0.2,0 0.29,0.01 0.09,0 0.19,0.02 0.29,0.04 0.03,0.14 0.06,0.33 0.09,0.56 0.03,0.23 0.04,0.43 0.04,0.59 0.09,-0.17 0.19,-0.34 0.32,-0.49 0.13,-0.16 0.28,-0.3 0.46,-0.42 0.18,-0.12 0.38,-0.22 0.61,-0.3 0.23,-0.08 0.48,-0.11 0.76,-0.11 0.57,0 1.01,0.12 1.32,0.35 0.31,0.23 0.54,0.56 0.71,0.98 0.1,-0.16 0.21,-0.32 0.35,-0.49 0.14,-0.16 0.29,-0.3 0.46,-0.43 0.17,-0.12 0.37,-0.22 0.59,-0.3 0.22,-0.08 0.47,-0.11 0.74,-0.11 0.85,0 1.46,0.24 1.85,0.71 0.39,0.47 0.58,1.18 0.58,2.11 v 4.67 c -0.11,0.02 -0.22,0.03 -0.36,0.04 -0.13,0 -0.25,0.01 -0.36,0.01 -0.11,0 -0.22,0 -0.35,-0.01 -0.13,0 -0.25,-0.02 -0.35,-0.04 v -4.26 c 0,-0.66 -0.1,-1.15 -0.3,-1.48 -0.2,-0.33 -0.53,-0.49 -0.99,-0.49 -0.49,0 -0.88,0.18 -1.18,0.53 -0.3,0.35 -0.45,0.87 -0.45,1.56 v 4.14 c -0.1,0.02 -0.22,0.03 -0.35,0.04 -0.13,0 -0.25,0.01 -0.35,0.01 -0.1,0 -0.22,0 -0.35,-0.01 -0.13,0 -0.25,-0.02 -0.35,-0.04 v -4.36 c 0,-0.64 -0.1,-1.12 -0.29,-1.44 -0.19,-0.32 -0.5,-0.48 -0.91,-0.48 -0.24,0 -0.46,0.05 -0.67,0.16 -0.21,0.1 -0.39,0.26 -0.55,0.47 -0.16,0.21 -0.28,0.47 -0.37,0.79 -0.09,0.32 -0.14,0.69 -0.14,1.11 v 3.74 c -0.1,0.02 -0.22,0.03 -0.35,0.04 -0.13,0 -0.25,0.01 -0.35,0.01 -0.1,0 -0.22,0 -0.36,-0.01 -0.13,0 -0.25,-0.02 -0.36,-0.04 v -7.33 z"
         id="path178" />
      <path
         class="cls-20"
         d="m 171.4,37.31 c 0,-0.56 -0.14,-0.95 -0.43,-1.17 -0.29,-0.22 -0.7,-0.33 -1.24,-0.33 -0.33,0 -0.65,0.03 -0.94,0.08 -0.29,0.05 -0.57,0.12 -0.85,0.21 -0.18,-0.31 -0.27,-0.69 -0.27,-1.13 0.32,-0.1 0.68,-0.19 1.07,-0.24 0.39,-0.05 0.77,-0.09 1.13,-0.09 0.95,0 1.68,0.22 2.17,0.65 0.5,0.43 0.74,1.13 0.74,2.08 v 4.59 c -0.33,0.08 -0.74,0.15 -1.21,0.24 -0.48,0.08 -0.96,0.12 -1.46,0.12 -0.47,0 -0.89,-0.04 -1.26,-0.13 -0.38,-0.09 -0.7,-0.22 -0.96,-0.41 -0.26,-0.19 -0.46,-0.43 -0.61,-0.73 -0.15,-0.3 -0.21,-0.65 -0.21,-1.07 0,-0.42 0.08,-0.77 0.25,-1.08 0.17,-0.31 0.39,-0.57 0.68,-0.77 0.29,-0.21 0.61,-0.36 0.99,-0.46 0.37,-0.1 0.76,-0.15 1.17,-0.15 0.3,0 0.55,0 0.75,0.02 0.2,0.01 0.36,0.03 0.49,0.05 v -0.27 z m 0,1.39 c -0.14,-0.02 -0.32,-0.04 -0.54,-0.06 -0.22,-0.02 -0.41,-0.03 -0.56,-0.03 -0.59,0 -1.04,0.11 -1.35,0.33 -0.31,0.22 -0.46,0.55 -0.46,1 0,0.29 0.05,0.51 0.16,0.67 0.11,0.16 0.24,0.29 0.39,0.37 0.16,0.09 0.33,0.14 0.52,0.16 0.19,0.02 0.37,0.03 0.54,0.03 0.22,0 0.44,-0.01 0.68,-0.04 0.23,-0.02 0.44,-0.06 0.62,-0.11 v -2.33 z"
         id="path180" />
      <path
         class="cls-20"
         d="m 178.79,37.31 c 0,-0.56 -0.14,-0.95 -0.43,-1.17 -0.29,-0.22 -0.7,-0.33 -1.24,-0.33 -0.33,0 -0.65,0.03 -0.94,0.08 -0.29,0.05 -0.57,0.12 -0.85,0.21 -0.18,-0.31 -0.27,-0.69 -0.27,-1.13 0.32,-0.1 0.68,-0.19 1.07,-0.24 0.39,-0.05 0.77,-0.09 1.13,-0.09 0.95,0 1.68,0.22 2.17,0.65 0.5,0.43 0.74,1.13 0.74,2.08 v 4.59 c -0.33,0.08 -0.74,0.15 -1.21,0.24 -0.48,0.08 -0.96,0.12 -1.46,0.12 -0.47,0 -0.89,-0.04 -1.26,-0.13 -0.38,-0.09 -0.7,-0.22 -0.96,-0.41 -0.26,-0.19 -0.46,-0.43 -0.61,-0.73 -0.15,-0.3 -0.21,-0.65 -0.21,-1.07 0,-0.42 0.08,-0.77 0.25,-1.08 0.17,-0.31 0.39,-0.57 0.68,-0.77 0.29,-0.21 0.61,-0.36 0.99,-0.46 0.37,-0.1 0.76,-0.15 1.17,-0.15 0.3,0 0.55,0 0.75,0.02 0.2,0.01 0.36,0.03 0.49,0.05 v -0.27 z m 0,1.39 c -0.14,-0.02 -0.32,-0.04 -0.54,-0.06 -0.22,-0.02 -0.41,-0.03 -0.56,-0.03 -0.59,0 -1.04,0.11 -1.35,0.33 -0.31,0.22 -0.46,0.55 -0.46,1 0,0.29 0.05,0.51 0.16,0.67 0.11,0.16 0.24,0.29 0.39,0.37 0.16,0.09 0.33,0.14 0.52,0.16 0.19,0.02 0.37,0.03 0.54,0.03 0.22,0 0.44,-0.01 0.68,-0.04 0.23,-0.02 0.44,-0.06 0.62,-0.11 v -2.33 z"
         id="path182" />
      <path
         class="cls-20"
         d="m 182.58,35.93 h -1.12 l -0.06,-0.2 2.46,-2.74 h 0.11 v 1.81 h 1.86 c 0.04,0.16 0.06,0.34 0.06,0.54 0,0.1 0,0.2 -0.01,0.3 0,0.1 -0.02,0.19 -0.04,0.29 h -1.86 v 3.34 c 0,0.4 0.02,0.72 0.05,0.96 0.03,0.24 0.09,0.42 0.17,0.55 0.08,0.13 0.19,0.21 0.33,0.26 0.14,0.05 0.31,0.06 0.52,0.06 0.16,0 0.31,-0.01 0.46,-0.04 0.14,-0.02 0.27,-0.05 0.39,-0.08 0.07,0.19 0.11,0.39 0.12,0.59 0.01,0.2 0.02,0.38 0.02,0.53 -0.19,0.05 -0.39,0.08 -0.6,0.11 -0.21,0.02 -0.43,0.04 -0.67,0.04 -0.69,0 -1.22,-0.17 -1.61,-0.5 -0.39,-0.33 -0.58,-0.89 -0.58,-1.66 z"
         id="path184" />
      <path
         class="cls-20"
         d="m 190.39,42.31 c -0.57,0 -1.07,-0.1 -1.5,-0.29 -0.43,-0.19 -0.79,-0.46 -1.07,-0.81 -0.29,-0.34 -0.5,-0.75 -0.64,-1.21 -0.14,-0.46 -0.21,-0.97 -0.21,-1.51 0,-0.54 0.07,-1.05 0.21,-1.51 0.14,-0.46 0.35,-0.87 0.64,-1.21 0.29,-0.34 0.64,-0.61 1.07,-0.81 0.43,-0.2 0.93,-0.3 1.5,-0.3 0.57,0 1.07,0.1 1.5,0.3 0.43,0.2 0.79,0.47 1.07,0.81 0.29,0.34 0.5,0.75 0.64,1.21 0.14,0.47 0.21,0.97 0.21,1.51 0,0.54 -0.07,1.05 -0.21,1.51 -0.14,0.47 -0.35,0.87 -0.64,1.21 -0.29,0.34 -0.64,0.61 -1.07,0.81 -0.43,0.2 -0.93,0.29 -1.5,0.29 z m 0,-1.13 c 0.66,0 1.14,-0.24 1.46,-0.71 0.31,-0.48 0.47,-1.14 0.47,-1.99 0,-0.85 -0.16,-1.51 -0.47,-1.98 -0.31,-0.47 -0.8,-0.71 -1.46,-0.71 -0.66,0 -1.14,0.24 -1.45,0.71 -0.31,0.47 -0.46,1.13 -0.46,1.98 0,0.85 0.16,1.51 0.46,1.99 0.31,0.48 0.79,0.71 1.45,0.71 z"
         id="path186" />
      <path
         class="cls-20"
         d="m 195.67,34.81 c 0.1,-0.02 0.21,-0.03 0.31,-0.04 0.1,0 0.2,-0.01 0.31,-0.01 0.11,0 0.2,0 0.29,0.01 0.09,0 0.19,0.02 0.29,0.04 0.03,0.14 0.06,0.34 0.09,0.58 0.03,0.24 0.04,0.45 0.04,0.61 0.1,-0.16 0.22,-0.32 0.37,-0.49 0.15,-0.16 0.32,-0.31 0.51,-0.44 0.19,-0.13 0.41,-0.23 0.66,-0.31 0.25,-0.08 0.52,-0.12 0.81,-0.12 0.84,0 1.46,0.24 1.86,0.72 0.4,0.48 0.6,1.19 0.6,2.14 v 4.64 c -0.1,0.02 -0.22,0.03 -0.36,0.04 -0.13,0 -0.25,0.01 -0.36,0.01 -0.11,0 -0.22,0 -0.35,-0.01 -0.13,0 -0.25,-0.02 -0.35,-0.04 v -4.26 c 0,-0.68 -0.11,-1.17 -0.31,-1.49 -0.21,-0.32 -0.54,-0.48 -1,-0.48 -0.27,0 -0.52,0.05 -0.76,0.14 -0.24,0.1 -0.45,0.24 -0.63,0.44 -0.18,0.2 -0.33,0.46 -0.44,0.78 -0.11,0.32 -0.17,0.7 -0.17,1.15 v 3.72 c -0.1,0.02 -0.22,0.03 -0.35,0.04 -0.13,0 -0.25,0.01 -0.35,0.01 -0.1,0 -0.22,0 -0.36,-0.01 -0.13,0 -0.25,-0.02 -0.36,-0.04 v -7.33 z"
         id="path188" />
      <path
         class="cls-20"
         d="m 208.63,31.66 c 0.1,-0.02 0.22,-0.03 0.36,-0.04 0.13,0 0.25,-0.01 0.34,-0.01 0.1,0 0.22,0 0.35,0.01 0.13,0 0.25,0.02 0.35,0.04 v 10.27 c -0.36,0.1 -0.77,0.19 -1.21,0.26 -0.45,0.07 -0.95,0.11 -1.5,0.11 -0.51,0 -1,-0.06 -1.46,-0.19 -0.46,-0.13 -0.87,-0.34 -1.21,-0.64 -0.34,-0.3 -0.61,-0.68 -0.81,-1.14 -0.2,-0.47 -0.3,-1.04 -0.3,-1.73 0,-0.59 0.09,-1.13 0.26,-1.61 0.18,-0.49 0.43,-0.9 0.75,-1.25 0.32,-0.35 0.71,-0.62 1.16,-0.81 0.45,-0.19 0.96,-0.29 1.51,-0.29 0.25,0 0.5,0.02 0.75,0.06 0.25,0.04 0.47,0.09 0.67,0.14 v -3.19 z m 0,4.39 c -0.19,-0.08 -0.4,-0.13 -0.61,-0.17 -0.22,-0.04 -0.46,-0.06 -0.71,-0.06 -0.39,0 -0.73,0.07 -1.01,0.21 -0.29,0.14 -0.52,0.34 -0.71,0.59 -0.19,0.25 -0.32,0.54 -0.42,0.88 -0.09,0.34 -0.14,0.71 -0.14,1.11 0,0.91 0.22,1.55 0.64,1.94 0.42,0.39 0.99,0.59 1.71,0.59 0.25,0 0.48,-0.01 0.69,-0.04 0.21,-0.02 0.4,-0.06 0.56,-0.11 z"
         id="path190" />
      <path
         class="cls-20"
         d="m 213.36,38.82 c 0.02,0.8 0.23,1.39 0.62,1.76 0.39,0.37 0.98,0.56 1.75,0.56 0.68,0 1.32,-0.12 1.93,-0.36 0.08,0.14 0.14,0.32 0.19,0.52 0.05,0.21 0.08,0.41 0.09,0.61 -0.31,0.13 -0.66,0.23 -1.04,0.3 -0.38,0.07 -0.79,0.1 -1.25,0.1 -0.67,0 -1.24,-0.09 -1.71,-0.28 -0.48,-0.19 -0.87,-0.45 -1.18,-0.79 -0.31,-0.34 -0.54,-0.74 -0.68,-1.2 -0.14,-0.46 -0.21,-0.97 -0.21,-1.52 0,-0.55 0.07,-1.05 0.21,-1.52 0.14,-0.47 0.35,-0.88 0.64,-1.23 0.29,-0.35 0.65,-0.62 1.08,-0.83 0.43,-0.21 0.95,-0.31 1.54,-0.31 0.5,0 0.95,0.09 1.33,0.26 0.38,0.17 0.7,0.41 0.96,0.71 0.26,0.3 0.45,0.66 0.59,1.07 0.13,0.41 0.2,0.86 0.2,1.35 0,0.13 0,0.27 -0.01,0.42 0,0.15 -0.02,0.27 -0.03,0.38 h -4.99 z m 3.63,-1.06 c 0,-0.27 -0.04,-0.52 -0.11,-0.76 -0.07,-0.24 -0.18,-0.46 -0.31,-0.64 -0.14,-0.18 -0.31,-0.33 -0.53,-0.44 -0.21,-0.11 -0.47,-0.16 -0.76,-0.16 -0.58,0 -1.03,0.18 -1.34,0.53 -0.31,0.35 -0.5,0.84 -0.56,1.47 H 217 Z"
         id="path192" />
      <path
         class="cls-20"
         d="m 220.24,34.81 c 0.1,-0.02 0.2,-0.03 0.3,-0.04 0.09,0 0.2,-0.01 0.3,-0.01 0.1,0 0.21,0 0.31,0.01 0.1,0.01 0.2,0.02 0.29,0.04 0.03,0.14 0.06,0.33 0.09,0.56 0.03,0.23 0.04,0.43 0.04,0.59 0.2,-0.32 0.46,-0.6 0.79,-0.84 0.33,-0.24 0.75,-0.36 1.26,-0.36 0.08,0 0.15,0 0.24,0 0.08,0 0.15,0.01 0.21,0.02 0.02,0.09 0.03,0.18 0.04,0.27 0,0.1 0.01,0.2 0.01,0.3 0,0.11 0,0.23 -0.02,0.36 -0.01,0.12 -0.03,0.24 -0.05,0.36 -0.08,-0.02 -0.16,-0.03 -0.24,-0.03 h -0.19 c -0.26,0 -0.5,0.04 -0.74,0.11 -0.23,0.07 -0.44,0.2 -0.63,0.38 -0.19,0.18 -0.33,0.43 -0.44,0.74 -0.11,0.31 -0.17,0.72 -0.17,1.21 v 3.64 c -0.1,0.02 -0.22,0.03 -0.35,0.04 -0.13,0 -0.25,0.01 -0.35,0.01 -0.1,0 -0.22,0 -0.35,-0.01 -0.13,0 -0.25,-0.02 -0.36,-0.04 v -7.33 z"
         id="path194" />
      <path
         class="cls-20"
         d="m 224.83,41.94 3.86,-6 h -3.4 c -0.03,-0.17 -0.04,-0.36 -0.04,-0.57 0,-0.21 0.01,-0.39 0.04,-0.56 h 5.5 l 0.07,0.19 -3.89,6.02 h 3.64 c 0.03,0.19 0.04,0.39 0.04,0.59 0,0.2 -0.01,0.37 -0.04,0.54 h -5.72 l -0.07,-0.2 z"
         id="path196" />
      <path
         class="cls-20"
         d="m 235.35,42.31 c -0.57,0 -1.07,-0.1 -1.5,-0.29 -0.43,-0.19 -0.79,-0.46 -1.07,-0.81 -0.29,-0.34 -0.5,-0.75 -0.64,-1.21 -0.14,-0.46 -0.21,-0.97 -0.21,-1.51 0,-0.54 0.07,-1.05 0.21,-1.51 0.14,-0.46 0.35,-0.87 0.64,-1.21 0.29,-0.34 0.64,-0.61 1.07,-0.81 0.43,-0.2 0.93,-0.3 1.5,-0.3 0.57,0 1.07,0.1 1.5,0.3 0.43,0.2 0.79,0.47 1.07,0.81 0.29,0.34 0.5,0.75 0.64,1.21 0.14,0.47 0.21,0.97 0.21,1.51 0,0.54 -0.07,1.05 -0.21,1.51 -0.14,0.47 -0.35,0.87 -0.64,1.21 -0.29,0.34 -0.64,0.61 -1.07,0.81 -0.43,0.2 -0.93,0.29 -1.5,0.29 z m 0,-1.13 c 0.66,0 1.14,-0.24 1.46,-0.71 0.31,-0.48 0.47,-1.14 0.47,-1.99 0,-0.85 -0.16,-1.51 -0.47,-1.98 -0.31,-0.47 -0.8,-0.71 -1.46,-0.71 -0.66,0 -1.14,0.24 -1.45,0.71 -0.31,0.47 -0.46,1.13 -0.46,1.98 0,0.85 0.16,1.51 0.46,1.99 0.31,0.48 0.79,0.71 1.45,0.71 z"
         id="path198" />
      <path
         class="cls-20"
         d="m 241.68,38.82 c 0.02,0.8 0.23,1.39 0.62,1.76 0.39,0.37 0.98,0.56 1.75,0.56 0.68,0 1.32,-0.12 1.93,-0.36 0.08,0.14 0.14,0.32 0.19,0.52 0.05,0.21 0.08,0.41 0.09,0.61 -0.31,0.13 -0.66,0.23 -1.04,0.3 -0.38,0.07 -0.79,0.1 -1.25,0.1 -0.67,0 -1.24,-0.09 -1.71,-0.28 -0.48,-0.19 -0.87,-0.45 -1.18,-0.79 -0.31,-0.34 -0.54,-0.74 -0.68,-1.2 -0.14,-0.46 -0.21,-0.97 -0.21,-1.52 0,-0.55 0.07,-1.05 0.21,-1.52 0.14,-0.47 0.35,-0.88 0.64,-1.23 0.29,-0.35 0.65,-0.62 1.08,-0.83 0.43,-0.21 0.95,-0.31 1.54,-0.31 0.5,0 0.95,0.09 1.33,0.26 0.38,0.17 0.7,0.41 0.96,0.71 0.26,0.3 0.45,0.66 0.59,1.07 0.13,0.41 0.2,0.86 0.2,1.35 0,0.13 0,0.27 -0.01,0.42 0,0.15 -0.02,0.27 -0.03,0.38 h -4.99 z m 3.63,-1.06 c 0,-0.27 -0.04,-0.52 -0.11,-0.76 -0.07,-0.24 -0.18,-0.46 -0.31,-0.64 -0.14,-0.18 -0.31,-0.33 -0.53,-0.44 -0.21,-0.11 -0.47,-0.16 -0.76,-0.16 -0.58,0 -1.03,0.18 -1.34,0.53 -0.31,0.35 -0.5,0.84 -0.56,1.47 h 3.62 z"
         id="path200" />
      <path
         class="cls-20"
         d="m 248.51,31.66 c 0.1,-0.02 0.22,-0.03 0.35,-0.04 0.13,0 0.25,-0.01 0.35,-0.01 0.1,0 0.22,0 0.36,0.01 0.13,0 0.25,0.02 0.36,0.04 v 10.47 c -0.11,0.02 -0.22,0.03 -0.36,0.04 -0.13,0 -0.25,0.01 -0.36,0.01 -0.11,0 -0.22,0 -0.35,-0.01 -0.13,0 -0.25,-0.02 -0.35,-0.04 z m 1.8,6.67 2.33,-3.53 c 0.12,-0.02 0.25,-0.03 0.37,-0.04 0.12,0 0.25,-0.01 0.39,-0.01 0.14,0 0.28,0 0.41,0.01 0.13,0 0.26,0.02 0.39,0.04 l -2.33,3.43 2.73,3.9 c -0.13,0.02 -0.26,0.03 -0.39,0.04 -0.12,0 -0.25,0.01 -0.39,0.01 -0.14,0 -0.27,0 -0.4,-0.01 -0.13,0 -0.27,-0.02 -0.4,-0.04 z"
         id="path202" />
    </g>
    <rect
       style="opacity:0.99;fill:#ffffff;fill-opacity:0.144124;stroke-width:2.20547"
       id="rect342"
       width="127.26727"
       height="26.9781"
       x="41.366364"
       y="135.01096" />
  </g>
</svg>
